<?xml version="1.0" standalone="no"?>
<!DOCTYPE svg PUBLIC "-//W3C//DTD SVG 1.1//EN" "http://www.w3.org/Graphics/SVG/1.1/DTD/svg11.dtd" >
<!--
2013-9-30: Created.
-->
<svg>
<metadata>
Created by iconfont
</metadata>
<defs>

<font id="iconfont" horiz-adv-x="1024" >
  <font-face
    font-family="iconfont"
    font-weight="500"
    font-stretch="normal"
    units-per-em="1024"
    ascent="896"
    descent="-128"
  />
    <missing-glyph />
    
    <glyph glyph-name="xinxi-da" unicode="&#59181;" d="M512 793.6a409.6 409.6 0 1 0 0-819.2 409.6 409.6 0 0 0 0 819.2z m0-307.2a25.6 25.6 0 0 1-25.6-25.6v-256a25.6 25.6 0 1 1 51.2 0v256A25.6 25.6 0 0 1 512 486.4z m0 107.52a30.72 30.72 0 1 1 0-61.44 30.72 30.72 0 0 1 0 61.44z"  horiz-adv-x="1024" />

    
    <glyph glyph-name="queren1" unicode="&#59180;" d="M512 793.6a409.6 409.6 0 1 0 0-819.2 409.6 409.6 0 0 0 0 819.2z m224.768-278.528a25.6 25.6 0 0 1-36.2496 0l-235.3664-235.264L338.4832 406.528a25.6 25.6 0 1 1-36.1984-36.1984l144.7936-144.7936a25.4976 25.4976 0 0 1 15.9232-7.424h4.352l4.352 0.768a25.4976 25.4976 0 0 1 11.5712 6.656l253.44 253.44a25.6 25.6 0 0 1 0 36.1984z"  horiz-adv-x="1024" />

    
    <glyph glyph-name="cuowu-da" unicode="&#59179;" d="M512 793.6a409.6 409.6 0 1 0 0-819.2 409.6 409.6 0 0 0 0 819.2zM372.9408 558.6432a25.6 25.6 0 0 1-32.6656-39.168L475.8016 384l-135.5264-135.4752-2.9184-3.584a25.6 25.6 0 0 1 39.168-32.6656L512 347.8016l135.4752-135.5264 3.584-2.9184a25.6 25.6 0 0 1 32.6656 39.168L548.1984 384l135.5264 135.4752 2.9184 3.584a25.6 25.6 0 0 1-39.168 32.6656L512 420.1984 376.5248 555.7248z"  horiz-adv-x="1024" />

    
    <glyph glyph-name="yincang" unicode="&#59178;" d="M704.9216 687.2064a25.6 25.6 0 0 0 9.984-31.232l-2.0992-4.096-358.4-563.2a25.6 25.6 0 0 0-45.312 23.3472l2.0992 4.096 358.4 563.2a25.6 25.6 0 0 0 35.328 7.8848z m20.992-110.1824C794.6752 534.3744 859.9552 470.016 921.6 384c-122.2656-170.6496-258.7648-256-409.6-256-23.04 0-45.6704 1.9968-68.0448 5.9392l30.1056 47.36c8.192-0.9216 16.4352-1.536 24.7296-1.8432L512 179.2c119.2448 0 230.0416 61.7984 333.7216 189.5936l11.9808 15.2064-0.512 0.768C806.0416 450.56 753.152 500.0704 698.368 533.8624l27.4944 43.1616zM512 640c23.04 0 45.7216-1.9968 68.096-5.9904l-30.208-47.3088a335.9744 335.9744 0 0 1-24.6784 1.8432L512 588.8C392.7552 588.8 281.9584 527.0016 178.2784 399.2064L166.2464 384l0.5632-0.768c51.1488-65.792 104.0384-115.3024 158.8224-149.0944l-27.4944-43.1616C229.2736 233.6256 163.9936 297.984 102.4 384c122.2656 170.6496 258.7648 256 409.6 256z m136.192-184.9856A153.6 153.6 0 0 0 512 230.4l-6.6048 0.2048 35.072 54.9888a102.4 102.4 0 0 1 72.704 114.3296l35.072 55.0912zM512 537.6l6.5536-0.2048-35.0208-54.9888a102.4 102.4 0 0 1-72.704-114.3296l-35.072-55.0912A153.6 153.6 0 0 0 512 537.6z"  horiz-adv-x="1024" />

    
    <glyph glyph-name="zhanneixin" unicode="&#59175;" d="M870.4 533.0944V128a51.2 51.2 0 0 0-51.2-51.2H204.8a51.2 51.2 0 0 0-51.2 51.2V533.0944l358.4-153.6 358.4 153.6zM819.2 691.2a51.2 51.2 0 0 0 50.8416-45.2096L870.4 640v-51.2l-358.4-153.6-358.4 153.6V640a51.2 51.2 0 0 0 45.2096 50.8416L204.8 691.2h614.4z"  horiz-adv-x="1024" />

    
    <glyph glyph-name="yingyonghui" unicode="&#59176;" d="M435.2 358.4a51.2 51.2 0 0 0 51.2-51.2v-204.8a51.2 51.2 0 0 0-51.2-51.2h-204.8a51.2 51.2 0 0 0-51.2 51.2v204.8a51.2 51.2 0 0 0 51.2 51.2h204.8z m358.4 0a51.2 51.2 0 0 0 51.2-51.2v-204.8a51.2 51.2 0 0 0-51.2-51.2h-204.8a51.2 51.2 0 0 0-51.2 51.2v204.8a51.2 51.2 0 0 0 51.2 51.2h204.8z m-358.4 358.4a51.2 51.2 0 0 0 51.2-51.2v-204.8a51.2 51.2 0 0 0-51.2-51.2h-204.8a51.2 51.2 0 0 0-51.2 51.2v204.8a51.2 51.2 0 0 0 51.2 51.2h204.8z m358.4 0a51.2 51.2 0 0 0 51.2-51.2v-204.8a51.2 51.2 0 0 0-51.2-51.2h-204.8a51.2 51.2 0 0 0-51.2 51.2v204.8a51.2 51.2 0 0 0 51.2 51.2h204.8z"  horiz-adv-x="1024" />

    
    <glyph glyph-name="wodedaiban" unicode="&#59177;" d="M819.2 691.2a51.2 51.2 0 0 0 51.2-51.2l0.0512-232.2432A204.8 204.8 0 0 1 632.576 76.8L204.8 76.8a51.2 51.2 0 0 0-51.2 51.2V640a51.2 51.2 0 0 0 51.2 51.2h614.4z m-51.2-307.2a153.6 153.6 0 1 0 0-307.2 153.6 153.6 0 0 0 0 307.2z m0-51.2a25.6 25.6 0 0 1-25.1904-20.992l-0.4096-4.608V230.4a25.6 25.6 0 0 1 20.992-25.1904l4.608-0.4096h76.8a25.6 25.6 0 0 1 4.608 50.7904l-4.608 0.4096h-51.2v51.2a25.6 25.6 0 0 1-20.992 25.1904L768 332.8zM486.4 460.8h-204.8l-4.608-0.4096a25.6 25.6 0 0 1 0-50.3808l4.608-0.4096h204.8l4.608 0.4096A25.6 25.6 0 0 1 486.4 460.8z m204.8 128h-409.6l-4.608-0.4096a25.6 25.6 0 0 1 0-50.3808L281.6 537.6h409.6l4.608 0.4096A25.6 25.6 0 0 1 691.2 588.8z"  horiz-adv-x="1024" />

    
    <glyph glyph-name="xiangmuchengguo" unicode="&#59168;" d="M710.5536 721.7664a20.8384 20.8384 0 0 0 14.4384 6.2976c4.1472 0 7.8848-1.536 10.5472-4.1984l116.3264-116.3776a14.336 14.336 0 0 0 4.096-11.1616 20.5824 20.5824 0 0 0-6.2976-13.7216l-54.4256-54.4256-139.1616 139.1616 54.4768 54.4256zM158.3104 592.896A16.0768 16.0768 0 0 0 153.6 604.3136c0 4.352 1.6896 8.3968 4.7104 11.4176l121.9072 121.9584A16.0768 16.0768 0 0 0 291.6864 742.4c4.3008 0 8.3968-1.6896 11.4176-4.7104l181.8624-182.1184-144.6912-144.6912L158.3104 592.896z m196.4032-227.1232l0.512 0.512 174.592 174.4896 1.536 1.6384 94.976 95.1296 139.1104-139.1616-96.6144-96.6144-0.0512-0.1024-174.4896-174.4384-0.1024-0.0512-137.8816-137.9328-139.1104 139.0592 137.5232 137.472z m-153.088-181.3504l110.848-110.848-132.6592-21.8112 21.76 132.6592z m664.064-32.1536l-121.856-121.9584a16.0768 16.0768 0 0 0-11.4176-4.7104 16.0768 16.0768 0 0 0-11.4176 4.7104l-182.0672 182.0672 61.3376 61.3376 83.3536 83.4048 182.0672-182.016a16.0768 16.0768 0 0 0 4.7104-11.4176 16.0768 16.0768 0 0 0-4.7104-11.4176z"  horiz-adv-x="1024" />

    
    <glyph glyph-name="xiangmugonggao" unicode="&#59169;" d="M640 717.0048v-666.0096c-0.1024-19.9168-20.5824-32-36.5568-21.6064L307.2 230.4v0.1024H201.5744A48.128 48.128 0 0 0 153.6 278.4768V489.5744A48.128 48.128 0 0 0 201.6256 537.6L307.2 537.6512l296.192 200.96c15.9744 10.3936 36.5568-1.6896 36.5568-21.6064z m140.544-497.3056l104.6528-104.6528a37.3248 37.3248 0 0 0 0-52.6336 37.3248 37.3248 0 0 0-52.6336 0l-104.6528 104.6016a37.3248 37.3248 0 0 0 0 52.6848 37.3248 37.3248 0 0 0 52.6336 0z m155.0336 202.3936c20.48 0 37.2224-16.7424 37.2224-37.2224 0-20.48-16.7424-37.1712-37.2224-37.1712h-147.968a37.2736 37.2736 0 0 0-37.2224 37.1712c0 20.48 16.7424 37.2224 37.2224 37.2224h147.968z m-51.968 281.6512a37.376 37.376 0 0 0 3.8912-48.0256l-3.8912-4.608-104.6528-104.6528a37.3248 37.3248 0 0 0-52.6336 0 37.376 37.376 0 0 0-3.8912 48.0768l3.8912 4.608 104.6528 104.6016a37.3248 37.3248 0 0 0 52.6336 0z"  horiz-adv-x="1024" />

    
    <glyph glyph-name="xiangmurenyuan" unicode="&#59170;" d="M640 588.8a153.6 153.6 0 0 0 93.184-275.712 230.2464 230.2464 0 0 0 136.9088-199.0144L870.4 102.4a25.6 25.6 0 0 0-25.6-25.6H715.776l0.6656 10.6496c0.2048 4.9664 0.3072 9.9328 0.3072 14.9504l-0.256 13.824c-3.84 101.12-49.664 193.024-122.112 252.1088l-2.9696 2.304 5.0176 6.6048A229.888 229.888 0 0 1 640 512c0 26.7264-4.5568 52.3264-12.9024 76.1856A132.096 132.096 0 0 0 640 588.8zM409.6 691.2a179.2 179.2 0 0 0 98.6112-328.8576c88.9856-40.8576 152.576-135.4752 157.1328-246.9888L665.6 102.4a25.6 25.6 0 0 0-25.6-25.6h-460.8a25.6 25.6 0 0 0-25.1904 20.992L153.6 102.4c0 117.0944 64.9728 217.4976 157.44 259.9424A179.2 179.2 0 0 0 409.6 691.2z"  horiz-adv-x="1024" />

    
    <glyph glyph-name="xiangmuxinxi" unicode="&#59171;" d="M768 742.4a51.2 51.2 0 0 0 51.2-51.2v-614.4a51.2 51.2 0 0 0-51.2-51.2H256a51.2 51.2 0 0 0-51.2 51.2V691.2a51.2 51.2 0 0 0 51.2 51.2h512z m-225.0752-486.4H327.68l-3.6864-0.4096C314.4704 253.44 307.2 242.944 307.2 230.4c0-14.1312 9.216-25.6 20.48-25.6h215.2448l3.6864 0.4096c9.5232 2.1504 16.7936 12.6464 16.7936 25.1904 0 14.1312-9.216 25.6-20.48 25.6z m153.3952 153.6H327.68l-3.6864-0.4096C314.4704 407.04 307.2 396.544 307.2 384c0-14.1312 9.216-25.6 20.48-25.6h368.64l3.6864 0.4096c9.5232 2.1504 16.7936 12.6464 16.7936 25.1904 0 14.1312-9.216 25.6-20.48 25.6z m0 153.6H327.68l-3.6864-0.4096C314.4704 560.64 307.2 550.144 307.2 537.6c0-14.1312 9.216-25.6 20.48-25.6h368.64l3.6864 0.4096C709.5296 514.56 716.8 525.056 716.8 537.6c0 14.1312-9.216 25.6-20.48 25.6z"  horiz-adv-x="1024" />

    
    <glyph glyph-name="xiangmuwenjian" unicode="&#59172;" d="M870.4 486.4v-358.4a51.2 51.2 0 0 0-51.2-51.2H204.8a51.2 51.2 0 0 0-51.2 51.2V486.4h716.8zM422.4 691.2a38.4 38.4 0 0 0 38.4-38.4V640a25.6 25.6 0 0 1 25.6-25.6H819.2a51.2 51.2 0 0 0 51.2-51.2V537.6H153.6V640a51.2 51.2 0 0 0 51.2 51.2h217.6z"  horiz-adv-x="1024" />

    
    <glyph glyph-name="xiangmujindu" unicode="&#59173;" d="M870.4 622.8992v-68.1984c0-4.608-2.5088-8.704-7.6288-12.032A31.9488 31.9488 0 0 0 844.8 537.6h-665.6a31.488 31.488 0 0 0-17.9712 5.12C156.16 545.9456 153.6 549.9904 153.6 554.6496V622.8992c0 4.608 2.5088 8.704 7.6288 12.032 5.12 3.328 11.008 5.0688 17.9712 5.0688h665.6c6.8608 0 12.9536-1.6896 17.9712-5.12 5.12-3.2768 7.6288-7.3728 7.6288-11.9808z m-307.2-204.8v-68.1984c0-4.608-1.4336-8.704-4.352-12.032a13.312 13.312 0 0 0-10.2912-5.0688H168.2432a13.1072 13.1072 0 0 0-10.2912 5.12 17.8688 17.8688 0 0 0-4.352 11.9808V418.0992c0 4.608 1.4336 8.704 4.352 12.032A13.312 13.312 0 0 0 168.2432 435.2h380.3136c3.9424 0 7.424-1.6896 10.2912-5.12a17.7152 17.7152 0 0 0 4.352-11.9808z m204.8-204.8v-68.1984c0-4.608-2.1504-8.704-6.5024-12.032a24.576 24.576 0 0 0-15.4624-5.0688H175.616a24.2176 24.2176 0 0 0-15.4624 5.12c-4.3008 3.2768-6.5024 7.3216-6.5024 11.9808v68.1984c0 4.608 2.1504 8.704 6.5024 12.032A24.576 24.576 0 0 0 175.616 230.4H745.984c5.9392 0 11.1616-1.6896 15.4624-5.12 4.352-3.2768 6.5024-7.3728 6.5024-11.9808z"  horiz-adv-x="1024" />

    
    <glyph glyph-name="jingshi-yuan" unicode="&#59174;" d="M512 793.6a409.6 409.6 0 1 0 0-819.2 409.6 409.6 0 0 0 0 819.2z m0-558.08a30.72 30.72 0 1 1 0-61.44 30.72 30.72 0 0 1 0 61.44zM512 588.8a25.6 25.6 0 0 1-25.6-25.6v-256a25.6 25.6 0 1 1 51.2 0v256A25.6 25.6 0 0 1 512 588.8z"  horiz-adv-x="1024" />

    
    <glyph glyph-name="qiepian" unicode="&#58921;" d="M512 384m-204.8 0a204.8 204.8 0 1 1 409.6 0 204.8 204.8 0 1 1-409.6 0Z"  horiz-adv-x="1024" />

    
    <glyph glyph-name="gengduocaozuo-hengxiang" unicode="&#59167;" d="M307.2 384a51.2 51.2 0 1 0-102.4 0 51.2 51.2 0 0 0 102.4 0z m256 0a51.2 51.2 0 1 0-102.4 0 51.2 51.2 0 0 0 102.4 0z m256 0a51.2 51.2 0 1 0-102.4 0 51.2 51.2 0 0 0 102.4 0z"  horiz-adv-x="1024" />

    
    <glyph glyph-name="jiazaizhong" unicode="&#59166;" d="M512 629.76a245.76 245.76 0 1 1 245.76-245.76H819.2a307.2 307.2 0 1 0-307.2 307.2v-61.44z"  horiz-adv-x="1024" />

    
    <glyph glyph-name="xiugai" unicode="&#59165;" d="M571.5968 704A115.2 115.2 0 1 0 771.1232 588.8l-44.8-77.568-228.1984-397.1584-139.6736-90.368c-23.8592-15.104-54.4256-6.912-64.9728 19.5584a47.3088 47.3088 0 0 0-3.1232 13.056l-0.2048 6.8096 6.656 163.1232 217.1904 377.9584z m-13.2608-125.3888l-210.8928-367.104-5.632-137.5232 118.1696 76.4416L669.184 514.56l-110.848 64z m145.0496 123.2384a64 64 0 0 1-87.4496-23.4496l-31.9488-55.3984 110.848-64 31.9488 55.3984a64 64 0 0 1-17.92 83.8656z"  horiz-adv-x="1024" />

    
    <glyph glyph-name="wenjianjia" unicode="&#59163;" d="M153.6 640a51.2 51.2 0 0 0 51.2 51.2h204.8a51.2 51.2 0 0 0 40.96-20.48L512 588.8h307.2a51.2 51.2 0 0 0 51.2-51.2v-409.6a51.2 51.2 0 0 0-51.2-51.2H204.8a51.2 51.2 0 0 0-51.2 51.2V640z m256-409.6H256v-51.2h153.6v51.2z"  horiz-adv-x="1024" />

    
    <glyph glyph-name="wusuoshuwenjian" unicode="&#59164;" d="M665.6 742.4l153.6-153.6v-512a51.2 51.2 0 0 0-51.2-51.2H256a51.2 51.2 0 0 0-51.2 51.2V691.2a51.2 51.2 0 0 0 51.2 51.2h409.6z m-25.6-51.2v-128H768L640 691.2z"  horiz-adv-x="1024" />

    
    <glyph glyph-name="grid" unicode="&#59036;" d="M153.6 691.2h256a51.2 51.2 0 0 0 51.2-51.2v-153.6a51.2 51.2 0 0 0-51.2-51.2H153.6a51.2 51.2 0 0 0-51.2 51.2V640a51.2 51.2 0 0 0 51.2 51.2z m460.8 0h256a51.2 51.2 0 0 0 51.2-51.2v-153.6a51.2 51.2 0 0 0-51.2-51.2h-256a51.2 51.2 0 0 0-51.2 51.2V640a51.2 51.2 0 0 0 51.2 51.2z m-460.8-358.4h256a51.2 51.2 0 0 0 51.2-51.2v-153.6a51.2 51.2 0 0 0-51.2-51.2H153.6a51.2 51.2 0 0 0-51.2 51.2v153.6a51.2 51.2 0 0 0 51.2 51.2z m460.8 0h256a51.2 51.2 0 0 0 51.2-51.2v-153.6a51.2 51.2 0 0 0-51.2-51.2h-256a51.2 51.2 0 0 0-51.2 51.2v153.6a51.2 51.2 0 0 0 51.2 51.2z"  horiz-adv-x="1024" />

    
    <glyph glyph-name="list" unicode="&#59037;" d="M179.2 691.2h665.6a51.2 51.2 0 0 0 0-102.4h-665.6a51.2 51.2 0 1 0 0 102.4z m0-256h665.6a51.2 51.2 0 0 0 0-102.4h-665.6a51.2 51.2 0 0 0 0 102.4z m0-256h665.6a51.2 51.2 0 0 0 0-102.4h-665.6a51.2 51.2 0 0 0 0 102.4z"  horiz-adv-x="1024" />

    
    <glyph glyph-name="chengguoqueren1" unicode="&#59162;" d="M853.2992 249.4464l34.2016-38.0928-189.44-170.496-102.4 110.6944 37.5296 34.816 68.1472-73.6256 151.9616 136.704zM682.6496 721.92c62.8736 0 111.9744-55.9616 115.8144-124.4672L798.72 588.8v-306.688h-61.44V588.8c0 38.144-22.6816 67.7888-49.2544 71.3216l-5.376 0.3584H341.3504c-27.0336 0-51.4048-27.2384-54.3232-64.1536L286.72 588.8v-409.6c0-38.144 22.6816-67.7888 49.2544-71.3216l5.376-0.3584H512v-61.44H341.3504c-62.8736 0-111.9744 55.9616-115.8144 124.4672L225.28 179.2V588.8c0 69.5296 46.592 128.256 108.288 132.8128l7.7824 0.3072h341.2992z m-42.6496-365.4656a25.6 25.6 0 0 0 25.6-25.6v-3.9424a25.6 25.6 0 0 0-25.6-25.6h-256a25.6 25.6 0 0 0-25.6 25.6v3.9424a25.6 25.6 0 0 0 25.6 25.6h256z m0 169.3184a25.6 25.6 0 0 0 25.6-25.6v-3.9424a25.6 25.6 0 0 0-25.6-25.6h-256a25.6 25.6 0 0 0-25.6 25.6V500.224a25.6 25.6 0 0 0 25.6 25.6h256z"  horiz-adv-x="1024" />

    
    <glyph glyph-name="renwuneirong" unicode="&#59161;" d="M517.9904 770.2016a25.6 25.6 0 0 0 25.6-25.6v-64.256c155.648-15.2576 277.1968-142.1312 277.1968-296.3456 0-154.2144-121.4976-281.088-277.1968-296.3456v-64.256a25.6 25.6 0 0 0-25.6-25.6h-11.9808a25.6 25.6 0 0 0-25.6 25.6v64.256C324.7616 102.912 203.2128 229.7856 203.2128 384c0 154.2144 121.4976 281.088 277.1968 296.3456V744.6016a25.6 25.6 0 0 0 25.6 25.6h11.9808zM254.4128 384c0-125.6448 98.304-229.888 225.9968-244.8384V276.48c-48.64 13.312-84.224 56.3712-84.224 107.52 0 51.1488 35.6352 94.208 84.224 107.52V628.8384C352.768 613.9392 254.4128 509.6448 254.4128 384z m289.1776 244.8384V491.52c48.64-13.312 84.224-56.3712 84.224-107.52 0-51.1488-35.6352-94.208-84.224-107.52v-137.3184c127.6416 14.8992 225.9968 119.1936 225.9968 244.8384s-98.304 229.888-225.9968 244.8384z m-19.3536-185.3952l-1.6384-0.512a25.7536 25.7536 0 0 0-4.608-0.4096h-11.9808a25.6512 25.6512 0 0 0-6.2464 0.768c-30.0544-5.2224-52.3776-30.1056-52.3776-59.2896s22.272-54.016 52.2752-59.392a21.4528 21.4528 0 0 0 6.3488 0.8704h11.9808a25.6 25.6 0 0 0 6.3488-0.768c30.0032 5.2736 52.224 30.1568 52.224 59.2896 0 29.184-22.272 54.0672-52.3264 59.392z"  horiz-adv-x="1024" />

    
    <glyph glyph-name="shezhi-tianchong" unicode="&#59160;" d="M845.4656 470.6304L798.72 477.184a29.5424 29.5424 0 0 0-22.8864 18.0224 286.208 286.208 0 0 1-35.0208 60.928 29.44 29.44 0 0 0-4.2496 28.8256l17.7152 43.7248a28.928 28.928 0 0 1-12.4416 35.9936l-101.0688 58.4704a28.9792 28.9792 0 0 1-37.376-7.3216l-28.9792-36.9664a29.696 29.696 0 0 0-27.3408-10.9056 274.2784 274.2784 0 0 1-69.9904 0 29.696 29.696 0 0 0-27.3408 10.9056l-28.928 36.9664a28.9792 28.9792 0 0 1-37.4272 7.3216l-101.0688-58.368a29.0816 29.0816 0 0 1-12.4416-36.0448l17.7152-43.7248c3.9424-9.728 2.048-20.48-4.2496-28.8256a282.8288 282.8288 0 0 1-35.0208-60.928 29.2352 29.2352 0 0 0-22.8864-18.0224l-46.7456-6.5024c-14.336-2.048-25.088-14.336-25.088-28.8768v-116.736c0-14.4896 10.752-26.7264 24.9856-28.7744l46.7456-6.5536a29.5424 29.5424 0 0 0 22.8864-18.0736c9.216-21.8112 20.992-42.24 35.072-60.8768 6.2976-8.2944 8.192-19.2 4.2496-28.8256l-17.7664-43.7248a28.928 28.928 0 0 1 12.4416-36.0448l101.0688-58.368a28.9792 28.9792 0 0 1 37.4272 7.3216l28.928 37.0176a29.696 29.696 0 0 0 27.392 10.8544 274.2784 274.2784 0 0 1 69.9392 0 29.696 29.696 0 0 0 27.392-10.8544l28.928-37.0176a28.9792 28.9792 0 0 1 37.376-7.2704l101.12 58.368a29.0816 29.0816 0 0 1 12.3904 35.9936l-17.7152 43.7248a29.44 29.44 0 0 0 4.2496 28.8256c14.08 18.6368 25.9072 39.0656 35.072 60.928a29.2352 29.2352 0 0 0 22.8864 18.0224l46.7456 6.5536c14.336 2.048 24.9856 14.2848 24.9856 28.7744V441.856a28.672 28.672 0 0 1-24.9344 28.7744z m-333.3632-200.6016a113.5104 113.5104 0 1 0 0 227.0208 113.5104 113.5104 0 0 0 0-227.0208z"  horiz-adv-x="1024" />

    
    <glyph glyph-name="Todo_default" unicode="&#59156;" d="M768 742.4a102.4 102.4 0 0 0 102.4-102.4v-290.4064A230.4 230.4 0 1 1 546.4576 25.6H256a102.4 102.4 0 0 0-102.4 102.4V640a102.4 102.4 0 0 0 102.4 102.4h512z m-76.8-102.4h-358.4a25.6 25.6 0 0 1 0-51.2h358.4a25.6 25.6 0 1 1 0 51.2zM691.2 384a179.2 179.2 0 1 0 0-358.4 179.2 179.2 0 0 0 0 358.4z m17.92-107.52h-35.84v-107.52h35.84v0.0512l71.68-0.0512v35.84h-71.68v71.68z"  horiz-adv-x="1024" />

    
    <glyph glyph-name="gerenxinxi" unicode="&#59157;" d="M586.24 357.376a189.44 189.44 0 0 1 102.4 168.96 185.344 185.344 0 0 1-183.296 188.416 185.344 185.344 0 0 1-181.76-188.416 189.44 189.44 0 0 1 102.4-169.984 232.448 232.448 0 0 1-204.8-233.984v-13.312c0-34.816 23.04-56.832 70.144-66.56a843.264 843.264 0 0 1 157.184-8.704h129.024c121.856 0 227.328 0 227.328 75.264v13.312a231.936 231.936 0 0 1-218.624 235.008z"  horiz-adv-x="1024" />

    
    <glyph glyph-name="mimaguanli" unicode="&#59158;" d="M850.688 465.152l-81.2544 81.2544 81.2544 81.2544a67.2256 67.2256 0 0 1-95.0784 95.0784l-235.52-235.6224a246.3744 246.3744 0 1 1 95.0272-95.0272l59.3408 59.2896 81.2544-81.3056a67.072 67.072 0 0 1 95.0272 0 67.2768 67.2768 0 0 1-0.0512 95.0784z m-371.5072-272.384a111.0016 111.0016 0 0 0-79.1552-32.768 111.0016 111.0016 0 0 0-79.2064 32.768 111.0016 111.0016 0 0 0-32.768 79.2064c0 29.9008 11.5712 58.0096 32.768 79.1552a111.0016 111.0016 0 0 0 79.2064 32.8192c29.8496 0 58.0096-11.6224 79.1552-32.8192 21.1968-21.1456 32.768-49.2544 32.768-79.1552 0-29.9008-11.5712-58.0096-32.768-79.1552z"  horiz-adv-x="1024" />

    
    <glyph glyph-name="wodeshouye" unicode="&#59159;" d="M566.5792 727.7568l254.2592-150.2208c30.7712-18.176 49.5616-50.5344 49.5616-85.4016v-366.4384c0-55.296-46.336-100.096-103.4752-100.096H257.024C199.936 25.6 153.6 70.4 153.6 125.696V491.9808c0 34.9184 18.8416 67.328 49.664 85.504l255.5904 150.3232a106.496 106.496 0 0 0 107.7248-0.0512z m94.72-463.2064H362.7008a29.8496 29.8496 0 1 1 0-59.7504h298.7008a29.8496 29.8496 0 1 1 0 59.7504z"  horiz-adv-x="1024" />

    
    <glyph glyph-name="CBIMhengxiangLOGO" unicode="&#59155;" d="M3564.416 637.568c-0.981333 0-100.608-0.128-125.653333 0.170667h-0.256c-13.994667-0.170667-24.405333-5.077333-32.853334-15.36-44.544-54.613333-146.858667-179.2-175.530666-214.101334-32.341333 39.125333-164.949333 199.594667-178.432 216.064-4.693333 5.717333-12.501333 13.354667-26.325334 13.354667-24.021333-0.128-129.792-0.128-130.858666-0.128h-9.472v-491.946667h147.285333v9.514667 280.021333l197.632-240.768 7.253333 8.96c1.450667 1.706667 130.56 160.042667 189.909334 232.32v-290.944h146.773333V637.610667h-9.472zM1445.12 505.130667a202.325333 202.325333 0 0 0 82.517333 21.248c34.218667 1.706667 62.037333-0.64 87.552-7.466667a266.88 266.88 0 0 0 113.92-63.104c11.008-10.24 23.893333-12.842667 38.357334-7.68l115.072 41.557333-14.165334 22.186667a34.986667 34.986667 0 0 1-2.773333 4.053333 384.682667 384.682667 0 0 1-111.872 93.44c-47.530667 25.941333-99.84 40.661333-159.829333 44.928-59.861333 4.266667-113.706667-1.024-164.522667-16.213333-47.786667-14.336-86.570667-33.92-118.485333-59.904-78.506667-63.872-106.922667-145.749333-84.48-243.285333 14.506667-63.232 51.626667-113.066667 110.421333-148.181334 61.952-37.034667 133.077333-56.874667 211.413333-58.922666a522.965333 522.965333 0 0 1 90.026667 5.888 377.130667 377.130667 0 0 1 77.44 20.138666c51.2 19.498667 97.066667 51.370667 140.16 97.536 1.92 2.048 3.498667 4.181333 4.949333 6.186667l15.104 19.925333-9.813333 5.418667c-0.853333 0.426667-80.170667 43.946667-100.096 54.613333a26.453333 26.453333 0 0 1-32.042667-4.736c-4.010667-3.968-8.661333-8.576-13.269333-12.885333-44.458667-41.386667-98.432-62.72-160.426667-63.488a276.309333 276.309333 0 0 0-79.189333 9.429333c-31.488 8.832-55.466667 22.101333-73.301333 40.533334-35.968 37.034667-45.184 80.981333-27.392 130.474666 10.410667 29.013333 31.573333 51.370667 64.682666 68.266667M2631.722667 145.365333h147.2V637.482667h-147.2zM2090.24 344.234667H2359.68c15.189333 0 27.562667-3.84 37.802667-11.648 13.866667-10.538667 18.901333-28.842667 12.8-46.549334a29.269333 29.269333 0 0 0-17.322667-17.834666c-6.528-2.645333-14.336-4.693333-23.808-6.272-5.888-0.938667-12.117333-0.938667-18.730667-0.896h-2.944c-66.730667-0.085333-133.546667-0.042667-200.277333-0.042667H2090.24v83.242667z m278.954667 110.165333c-3.370667-1.450667-7.552-2.133333-12.032-2.858667l-1.877334-0.341333a31.573333 31.573333 0 0 0-5.546666-0.128l-3.114667 0.042667h-256.256V521.045333a37.973333 37.973333 0 0 0 0.938667 0h32.725333c72.448 0.042667 147.370667 0.085333 221.056-0.128 8.96 0 16.085333-0.896 21.888-2.730666a30.762667 30.762667 0 0 0 22.784-30.08 35.029333 35.029333 0 0 0-20.565333-33.706667z m126.72-52.48c29.994667 30.976 40.533333 75.178667 28.245333 120.661333-7.509333 27.690667-23.296 51.029333-48.298667 71.466667-34.133333 27.818667-74.453333 42.368-119.808 43.264-26.069333 0.512-379.477333 0.213333-394.538666 0.170667h-9.429334v-492.629334h45.44c96.512 0 354.944 0 374.784 0.128a224.085333 224.085333 0 0 1 87.936 17.749334c51.285333 22.144 81.749333 58.624 90.581334 108.458666a126.122667 126.122667 0 0 1-12.032 82.432c-9.514667 18.176-23.253333 33.706667-42.837334 48.298667zM828.416 95.018667l-216.746667-107.392V491.093333l216.789334 107.349334zM216.789333 295.594667L0 188.245333 0.042667 691.626667l216.746666 107.392zM216.832 295.552L0 188.245333l394.794667-307.925333 216.832 107.306667zM610.133333 490.325333l-195.84-96.981333-197.461333 405.674667L412.672 896z"  horiz-adv-x="3584" />

    
    <glyph glyph-name="gonggao" unicode="&#59154;" d="M522.8032 230.50239999999997H150.3744A48.128 48.128 0 0 0 102.4 278.4768V489.5744A48.128 48.128 0 0 0 150.4256 537.6h372.3776a48.128 48.128 0 0 0 48.0256-48.0256v-211.0976a48.128 48.128 0 0 0-48.0256-47.9744zM552.2432 29.388799999999947L256 230.39999999999998V537.6l296.2432 201.0112c15.9744 10.3936 36.5568-1.6896 36.5568-21.6064v-666.0096c-0.1024-19.9168-20.5824-32-36.5568-21.6064zM729.344 219.64800000000002l104.6528-104.6016a37.3248 37.3248 0 0 0 0-52.6336 37.3248 37.3248 0 0 0-52.6336 0l-104.6528 104.6016a37.3248 37.3248 0 0 0 0 52.6848 37.3248 37.3248 0 0 0 52.6336 0z m155.0336 202.4448c20.48 0 37.2224-16.7424 37.2224-37.2224 0-20.48-16.7424-37.1712-37.2224-37.1712h-147.968a37.2736 37.2736 0 0 0-37.2224 37.1712c0 20.48 16.7424 37.2224 37.2224 37.2224h147.968zM779.776 703.744a37.3248 37.3248 0 0 0 52.6336 0 37.3248 37.3248 0 0 0 0-52.6336l-104.6528-104.6528a37.3248 37.3248 0 0 0-52.6336 0 37.3248 37.3248 0 0 0 0 52.6848z"  horiz-adv-x="1024" />

    
    <glyph glyph-name="Todo" unicode="&#58929;" d="M853.333333 404.138667A256 256 0 0 1 491.861333 42.666667H256a85.333333 85.333333 0 0 0-85.333333 85.333333V682.666667a85.333333 85.333333 0 0 0 85.333333 85.333333h512a85.333333 85.333333 0 0 0 85.333333-85.333333v-278.528zM341.333333 597.333333h341.333334V640H341.333333v-42.666667z m0-128h213.333334V512H341.333333v-42.666667zM682.666667 0a213.333333 213.333333 0 1 0 0 426.666667 213.333333 213.333333 0 0 0 0-426.666667z m21.333333 213.333333v85.333334h-42.666667v-128h128v42.666666h-85.333333z"  horiz-adv-x="1024" />

    
    <glyph glyph-name="chanzhifenpei" unicode="&#58934;" d="M554.666667 768a341.333333 341.333333 0 0 0 341.333333-341.333333h-341.333333V768zM512 418.304l-329.770667-231.168A384 384 0 0 0 512 768v-349.696z m-302.933333-266.538667L539.733333 384h359.168a384 384 0 0 0-689.877333-232.234667z"  horiz-adv-x="1024" />

    
    <glyph glyph-name="hetongguanli" unicode="&#58935;" d="M853.333333 404.138667A256 256 0 0 1 491.861333 42.666667H256a85.333333 85.333333 0 0 0-85.333333 85.333333V682.666667a85.333333 85.333333 0 0 0 85.333333 85.333333h512a85.333333 85.333333 0 0 0 85.333333-85.333333v-278.528zM341.333333 640h341.333334V682.666667H341.333333v-42.666667zM682.666667 0a213.333333 213.333333 0 1 0 0 426.666667 213.333333 213.333333 0 0 0 0-426.666667z m-0.213334 133.12l90.88-47.786667-23.637333 96.426667L810.666667 245.76l-89.6 13.184-38.613334 82.346667-39.04-82.346667-88.746666-13.184 61.226666-64.085333-14.933333-96.384 81.493333 47.829333z"  horiz-adv-x="1024" />

    
    <glyph glyph-name="chengbenfenxi" unicode="&#58936;" d="M341.333333 725.333333v-85.333333h341.333334V725.333333h128a85.333333 85.333333 0 0 0 85.333333-85.333333v-554.666667a85.333333 85.333333 0 0 0-85.333333-85.333333H213.333333a85.333333 85.333333 0 0 0-85.333333 85.333333V640a85.333333 85.333333 0 0 0 85.333333 85.333333h128z m192-384.128h85.333334V384h-58.837334l55.168 55.168-30.165333 30.165333L512 396.501333 439.168 469.333333l-30.165333-30.165333L464.170667 384H405.333333v-42.794667h85.333334v-41.941333h-85.333334v-43.136h85.333334V170.666667h42.666666v85.461333h85.333334v43.136h-85.333334v41.941333zM384 682.666667h256V768H384z"  horiz-adv-x="1024" />

    
    <glyph glyph-name="sousuoxiangmu" unicode="&#58938;" d="M469.248 471.552c0-24.661333-20.736-44.885333-46.08-44.885333H259.413333C234.112 426.666667 213.333333 446.890667 213.333333 471.552V637.781333C213.333333 662.442667 234.112 682.666667 259.413333 682.666667h163.84c25.344 0 46.08-20.224 46.08-44.885334v-166.229333h-0.085333m0-341.333333c0-24.661333-20.736-44.885333-46.08-44.885334H259.413333C234.112 85.333333 213.333333 105.557333 213.333333 130.218667v166.229333C213.333333 321.194667 234.112 341.333333 259.413333 341.333333h163.84c25.344 0 46.08-20.224 46.08-44.885333v-166.229333h-0.085333M764.586667 85.333333h-163.84c-25.344 0-46.08 20.224-46.08 44.885334v166.229333c0 24.661333 20.736 44.885333 46.08 44.885333h163.84c25.386667 0 46.08-20.224 46.08-44.885333v-166.229333c0-24.661333-20.736-44.885333-46.08-44.885334zM764.501333 426.666667H600.746667c-25.301333 0-46.08 20.224-46.08 44.885333V637.781333C554.666667 662.442667 575.445333 682.666667 600.746667 682.666667h163.84c25.344 0 46.08-20.224 46.08-44.885334v-166.229333c-0.085333-24.661333-20.821333-44.885333-46.165334-44.885333z"  horiz-adv-x="1024" />

    
    <glyph glyph-name="wangongjinduqueren" unicode="&#58940;" d="M341.333333 725.333333v-85.333333h341.333334V725.333333h128a85.333333 85.333333 0 0 0 85.333333-85.333333v-554.666667a85.333333 85.333333 0 0 0-85.333333-85.333333H213.333333a85.333333 85.333333 0 0 0-85.333333 85.333333V640a85.333333 85.333333 0 0 0 85.333333 85.333333h128z m55.509334-369.792l-25.685334-34.048 143.744-108.544 183.381334 196.992-31.232 29.056-157.184-168.789333-113.024 85.333333zM384 682.666667h256V768H384z"  horiz-adv-x="1024" />

    
    <glyph glyph-name="wanglaihanguanli" unicode="&#58941;" d="M702.848 479.445333a213.333333 213.333333 0 0 1-381.696 0L170.666667 554.666667V682.666667a85.333333 85.333333 0 0 0 85.333333 85.333333h512a85.333333 85.333333 0 0 0 85.333333-85.333333v-128l-150.485333-75.221334zM325.461333 487.637333A213.290667 213.290667 0 0 0 512 597.333333a213.290667 213.290667 0 0 0 186.538667-109.696L896 597.333333v-512a85.333333 85.333333 0 0 0-85.333333-85.333333H213.333333a85.333333 85.333333 0 0 0-85.333333 85.333333V597.333333l197.461333-109.696z m221.44-147.626666H386.133333v-42.666667h258.176L538.88 411.733333l-31.36-28.928 39.466667-42.794666z m95.274667-128.341334v42.666667H384l105.514667-114.389333 31.36 28.928-39.466667 42.794666h160.768z"  horiz-adv-x="1024" />

    
    <glyph glyph-name="yijuxingwenjianguanli" unicode="&#58943;" d="M128 554.666667h768v-469.333334a85.333333 85.333333 0 0 0-85.333333-85.333333H213.333333a85.333333 85.333333 0 0 0-85.333333 85.333333V554.666667zM213.333333 768h128.512l83.754667-83.626667 388.48-1.408A82.218667 82.218667 0 0 0 896 600.746667H128V682.666667a85.333333 85.333333 0 0 0 85.333333 85.333333z"  horiz-adv-x="1024" />

    
    <glyph glyph-name="youxiangguanli" unicode="&#58944;" d="M896 597.333333v-512a85.333333 85.333333 0 0 0-85.333333-85.333333H213.333333a85.333333 85.333333 0 0 0-85.333333 85.333333V597.333333l384-213.333333 384 213.333333zM512 426.666667L128 640V682.666667a85.333333 85.333333 0 0 0 85.333333 85.333333h597.333334a85.333333 85.333333 0 0 0 85.333333-85.333333v-42.666667l-384-213.333333z"  horiz-adv-x="1024" />

    
    <glyph glyph-name="shaituguanli" unicode="&#58945;" d="M810.666667 85.504V597.333333a85.333333 85.333333 0 0 1-85.333334 85.333334H213.504a91.306667 91.306667 0 0 0 90.325333 85.333333H805.546667A91.306667 91.306667 0 0 0 896 677.546667v-501.76a91.306667 91.306667 0 0 0-85.333333-90.282667z m-5.12-0.170667H298.666667a85.333333 85.333333 0 0 0-85.333334 85.333334V677.546667v-501.76A91.306667 91.306667 0 0 1 303.786667 85.333333h501.76zM212.693333 682.666667h513.28A85.461333 85.461333 0 0 0 810.666667 597.973333v-513.28A85.461333 85.461333 0 0 0 725.973333 0H212.693333A85.461333 85.461333 0 0 0 128 84.693333V597.973333A85.461333 85.461333 0 0 0 212.693333 682.666667z m385.877334-256l-176.64-122.453334-78.805334 33.92-85.930666-167.168h425.642666L598.570667 426.666667z m-171.733334-171.008l149.077334 103.381333 47.914666-145.408H327.082667l35.797333 69.546667 63.957333-27.52zM320 512a64 64 0 1 1 0-128 64 64 0 0 1 0 128z m0-42.666667a21.333333 21.333333 0 1 0 0-42.666666 21.333333 21.333333 0 0 0 0 42.666666z"  horiz-adv-x="1024" />

    
    <glyph glyph-name="xiangmuxinxiguanli" unicode="&#58946;" d="M810.666667 85.504V597.333333a85.333333 85.333333 0 0 1-85.333334 85.333334H213.504a91.306667 91.306667 0 0 0 90.325333 85.333333H805.546667A91.306667 91.306667 0 0 0 896 677.546667v-501.76a91.306667 91.306667 0 0 0-85.333333-90.282667z m-5.12-0.170667H298.666667a85.333333 85.333333 0 0 0-85.333334 85.333334V677.546667v-501.76A91.306667 91.306667 0 0 1 303.786667 85.333333h501.76zM212.693333 682.666667h513.28A85.461333 85.461333 0 0 0 810.666667 597.973333v-513.28A85.461333 85.461333 0 0 0 725.973333 0H212.693333A85.461333 85.461333 0 0 0 128 84.693333V597.973333A85.461333 85.461333 0 0 0 212.693333 682.666667zM298.666667 512v-42.666667h341.333333V512H298.666667z m0-128v-42.666667h341.333333v42.666667H298.666667z m0-128v-42.666667h341.333333v42.666667H298.666667z"  horiz-adv-x="1024" />

    
    <glyph glyph-name="xiangmuyunyingzhanghuguanli" unicode="&#58947;" d="M896 512h-256a128 128 0 0 1-128-128v-42.666667a128 128 0 0 1 128-128h256v-128a85.333333 85.333333 0 0 0-85.333333-85.333333H213.333333a85.333333 85.333333 0 0 0-85.333333 85.333333V682.666667a85.333333 85.333333 0 0 0 85.333333 85.333333h597.333334a85.333333 85.333333 0 0 0 85.333333-85.333333v-170.666667zM640 469.333333h256v-213.333333h-256a85.333333 85.333333 0 0 0-85.333333 85.333333v42.666667a85.333333 85.333333 0 0 0 85.333333 85.333333z m-21.333333-128a21.333333 21.333333 0 1 1 0 42.666667 21.333333 21.333333 0 0 1 0-42.666667z"  horiz-adv-x="1024" />

    
    <glyph glyph-name="sousuorenwu" unicode="&#58948;" d="M213.333333 597.333333v-567.125333a29.738667 29.738667 0 0 1 10.24-22.954667 28.586667 28.586667 0 0 1 23.978667-6.528L512 49.109333l264.746667-48.64c8.533333-1.536 17.237333 0.896 23.765333 6.613334A29.738667 29.738667 0 0 1 810.666667 29.866667V597.333333H213.333333z m452.352-247.594666l-78.250666-58.965334a15.488 15.488 0 0 1-5.504-17.109333l29.013333-93.781333a7.722667 7.722667 0 0 0-2.773333-8.234667 7.424 7.424 0 0 0-8.533334-0.341333l-78.549333 59.008a14.549333 14.549333 0 0 1-17.408 0l-78.506667-59.008a7.424 7.424 0 0 0-8.832 0 7.722667 7.722667 0 0 0-2.773333 8.533333l29.013333 93.824a15.488 15.488 0 0 1-5.546666 17.066667l-78.506667 59.008a7.893333 7.893333 0 0 0-3.626667 10.453333 7.68 7.68 0 0 0 10.24 3.712h96.853334a14.805333 14.805333 0 0 1 14.165333 10.325333l29.013333 94.08a7.253333 7.253333 0 0 0 6.912 5.290667 7.253333 7.253333 0 0 0 6.954667-5.290667l29.013333-94.08a14.805333 14.805333 0 0 1 14.165334-10.325333h98.56a7.509333 7.509333 0 0 0 8.106666-5.034667 7.722667 7.722667 0 0 0-3.2-9.130666zM256 725.333333h512a42.666667 42.666667 0 0 0 42.666667-42.666666v-42.666667H213.333333V682.666667a42.666667 42.666667 0 0 0 42.666667 42.666666z"  horiz-adv-x="1024" />

    
    <glyph glyph-name="morenkongzhuangtai" unicode="&#59152;" d="M61.44 384c0-248.832 201.728-450.56 450.56-450.56S962.56 135.168 962.56 384 760.832 834.56 512 834.56 61.44 632.832 61.44 384zM360.428 407.265h251.381c4.199 0 11.48-3.45 11.48-10.342s-7.271-10.343-11.48-10.343H360.428c-4.199 0-11.48 3.451-11.48 10.343s7.27 10.342 11.48 10.342zM407.122 650.24h302.93c24.975 0 37.468-12.954 37.468-38.871v-408.207c0-25.908-12.493-38.871-37.478-38.871h-302.91c-24.985 0-37.478 12.953-37.478 38.87V611.37c0 25.907 12.493 38.871 37.478 38.871zM365.711 619.213h302.93c24.976 0 37.468-12.534 37.468-37.622v-395.182c0-25.088-12.492-37.632-37.478-37.632h-302.91c-24.985 0-37.478 12.544-37.478 37.632V581.591c0 25.088 12.493 37.632 37.479 37.632zM334.653 588.206h302.93c24.976 0 37.479-12.544 37.479-37.632v-395.182c0-25.088-12.503-37.632-37.479-37.632h-302.94c-24.985 0-37.468 12.544-37.468 37.632V550.574c0 25.088 12.493 37.632 37.478 37.632zM360.428 314.204H503.1c4.21 0 11.49-3.44 11.49-10.342 0-6.882-7.28-10.332-11.49-10.332H360.428c-4.199 0-11.48 3.45-11.48 10.342s7.27 10.342 11.48 10.342z m0 93.061h251.381c4.199 0 11.48-3.45 11.48-10.342s-7.271-10.343-11.48-10.343H360.428c-4.199 0-11.48 3.451-11.48 10.343s7.27 10.342 11.48 10.342z m-0.103 93.061h251.587c4.167 0 11.376-3.45 11.376-10.342s-7.209-10.342-11.376-10.342H360.325c-4.168 0-11.377 3.45-11.377 10.342s7.21 10.342 11.377 10.342zM276.48 184.965H629.3v-22.733c0-14.028 5.078-27.576 14.284-38.082l5.591-6.39-334.797 0.154c-20.93 0.02-37.888 17.172-37.898 38.318v28.733zM609.28 256a71.68 71.68 0 1 1 143.36 0 71.68 71.68 0 1 1-143.36 0zM645.12 261.12h71.68v-10.24h-71.68zM686.08 291.84v-71.68h-10.24v71.68z"  horiz-adv-x="1024" />

    
    <glyph glyph-name="sousuokongzhuangtai" unicode="&#59153;" d="M92.16 383.59c0-231.649 187.781-419.43 419.43-419.43s419.43 187.781 419.43 419.43S743.24 803.02 511.59 803.02 92.16 615.24 92.16 383.59zM372.45 599.04h279.1c23.02 0 34.53-11.469 34.53-34.406v-361.268c0-22.937-11.51-34.406-34.53-34.406h-279.1c-23.02 0-34.53 11.469-34.53 34.406V564.634c0 22.937 11.51 34.406 34.53 34.406zM296.96 230.4h329.595v-20.787c0-12.83 4.741-25.2 13.343-34.816l5.222-5.837-312.76 0.133c-19.548 0.03-35.38 15.698-35.4 35.031V230.4zM553.134 537.6h71.332c6.943 0 10.414-3.41 10.414-10.24 0-6.82-3.471-10.24-10.414-10.24h-71.332c-6.943 0-10.414 3.42-10.414 10.24 0 6.83 3.471 10.24 10.414 10.24zM389.018 394.24h245.964c6.759 0 10.138-3.41 10.138-10.24 0-6.82-3.38-10.24-10.138-10.24H389.018c-6.759 0-10.138 3.42-10.138 10.24 0 6.83 3.38 10.24 10.138 10.24z m0-71.68h245.964c6.759 0 10.138-3.41 10.138-10.24s-3.38-10.24-10.138-10.24H389.018c-6.759 0-10.138 3.41-10.138 10.24s3.38 10.24 10.138 10.24zM725.115 277.023c3.113-2.847 6.574-5.899 9.933-9.073a12881.97 12881.97 0 0 0 36.372-34.662c8.725-8.315 9.114-20.07 0.963-27.904-8.223-7.936-20.665-7.557-29.532 0.9-14.674 13.968-29.39 27.936-44.002 41.995-1.812 1.74-2.97 1.864-5.284 0.666-52.224-27.423-115.261-0.308-128.327 55.122-10.568 44.85 20.992 90.01 69.181 98.918 49.613 9.155 97.598-24.72 102.933-72.55a79.155 79.155 0 0 0-11.08-50.514c-0.307-0.533-0.614-1.024-0.88-1.567-0.103-0.205-0.103-0.45-0.277-1.331z m-74.68-13.343c33.812 0.246 60.805 25.979 60.651 57.846-0.154 31.846-27.648 57.59-61.194 57.344-33.178-0.277-59.873-26.42-59.7-58.41 0.175-30.996 27.792-57.016 60.232-56.78h0.01zM604.16 312.33c0.051 30.505 26.122 52.255 50.995 51.149 0.062-1.167 0.185-2.376 0.185-3.563 0.03-3.523 0.01-7.046 0.01-10.527-23.85-2.09-35.779-18.381-36.905-37.069H604.16v0.01z"  horiz-adv-x="1024" />

    
    <glyph glyph-name="Message" unicode="&#58884;" d="M1181.098466 633.675294c-20.239059 30.599529-54.332235 48.489412-54.332235 48.489412L1048.098936 726.738824v103.604705C1045.207642 868.291765 1009.729054 894.795294 980.454701 894.795294H222.875407c-43.248941 0-64.090353-27.226353-67.584-64.451765v-103.604705l-94.027294-51.2s-32.105412-17.950118-45.959529-41.923765C-0.718005 606.268235 0.004819 562.477176 0.004819 562.477176v-528.926117c0-77.763765 81.558588-160.165647 153.238588-160.165647h894.072471c61.379765 0 156.129882 47.887059 156.129882 152.214588V555.188706c-0.120471 0-2.108235 47.224471-22.347294 78.486588zM155.953995 555.851294l-82.221176 52.464941 82.221176 51.802353v-104.207059z m831.307294-28.551529l-341.413647-193.41553s-19.516235-14.576941-44.574117-14.034823c-23.732706 0.662588-40.357647 11.324235-40.357647 11.324235L215.105054 527.36V807.032471c0 21.925647 9.818353 31.262118 32.828235 31.262117h706.56c23.070118 0 32.828235-9.336471 32.828236-31.322353V527.36h-0.120471z m61.379765 26.563764V661.564235l84.269177-55.838117-84.329412-51.862589z"  horiz-adv-x="1204" />

    
    <glyph glyph-name="pingshenjiedian" unicode="&#58889;" d="M816.911241 164.603297l189.358606-189.431747a60.413368 60.413368 0 0 0-85.500274-85.427135L731.410966 79.176162l0.950816 0.877676c32.474014 22.819577 60.705926 51.12463 83.598643 83.598643l0.950816 0.950816zM438.852285 896a438.838022 438.838022 0 1 0 0-877.676044A438.838022 438.838022 0 0 0 438.852285 896z m0-146.279341a292.558681 292.558681 0 1 1 0-585.117362 292.558681 292.558681 0 0 1 0 585.117362z"  horiz-adv-x="1024" />

    
    <glyph glyph-name="jiaofujiedian" unicode="&#58891;" d="M26.692472 786.670561c19.745116 14.918532 49.43592 4.972844 64.281322-19.891376L565.295359-53.301301c9.872558-24.86422 4.899714-54.628154-19.745116-69.546686a44.316816 44.316816 0 0 0-24.71796-4.972844 51.849212 51.849212 0 0 0-44.463076 24.86422L6.947356 717.050745c-14.772272 24.86422-4.899714 54.701284 19.745116 69.619816zM466.423519 896c84.026438 0 167.979746-19.891376 247.03334-39.782752 98.87184-19.891376 187.797992-39.709622 247.033341-24.86422 14.845402 4.972844 34.590518 0 49.43592-14.845403 14.845402-14.918532 19.745116-34.809908 4.972844-54.701284-79.053594-193.794657-202.570264-243.523098-311.314663-283.30585-88.926152-29.837064-163.080032-59.600998-217.342536-158.984749a38.758931 38.758931 0 0 0-19.745116-19.891376L194.672218 776.724873C263.853254 856.217248 352.779406 896 466.423519 896z"  horiz-adv-x="1024" />

    
    <glyph glyph-name="CBIM" unicode="&#59044;" d="M839.198118 91.592067l-219.609278-107.821176 0.034421 505.546218 219.617882 107.821177zM0.03442 690.769748L0 185.223529 219.600672 293.044706l0.043025 505.554823zM0 185.214924l399.945143-309.239395 219.635092 107.769547-399.936538 309.239395zM418.032941 896L219.660908 798.599529l200.015596-407.397109 198.380639 97.409076zM3440.794891 675.444168c-1.015395 0-101.918118-0.129076-127.311597 0.172101H3313.233748c-14.146689-0.197916-24.722286-5.111395-33.267093-15.471866-45.133445-54.822723-148.781176-179.948639-177.831798-215.005579-32.759395 39.299227-167.109916 200.463059-180.740302 216.993344-4.758588 5.765378-12.683832 13.423866-26.675631 13.423866-24.317849-0.137681-131.485042-0.146286-132.569277-0.146286h-9.586017v-494.067093h149.202824V190.920067 472.158655l200.187697-241.80168 7.383126 8.975059c1.462857 1.772639 132.259496 160.742185 192.37432 233.351529v-292.192807h148.695126v494.962017l-9.611832-0.008605zM1293.905748 542.410218c24.971832 12.649412 53.093109 19.826017 83.632403 21.340505 34.652504 1.755429 62.834017-0.610958 88.674958-7.469177 43.567328-11.582387 82.393277-32.897076 115.393614-63.367529 11.169345-10.334655 24.240403-12.924773 38.868974-7.710118l116.555295 41.708639-14.31879 22.287059a34.445983 34.445983 0 0 1-2.839664 4.061579c-32.707765 39.230387-70.828101 70.793681-113.302588 93.794958-48.171025 26.107697-101.135059 40.87395-161.912471 45.167866-60.665546 4.302521-115.169882-1.032605-166.662454-16.306555-48.420571-14.379025-87.685378-34.050151-120.040336-60.149243-79.510588-64.141983-108.294454-146.337345-85.585748-244.305748 14.714622-63.488 52.361681-113.560739 111.856941-148.815597 62.773782-37.199597 134.823798-57.111664 214.170891-59.185479a526.628571 526.628571 0 0 1 12.262185-0.154891c25.436504 0 51.974454 2.048 78.891025 6.09237a384.903529 384.903529 0 0 1 78.512404 20.221849c51.879798 19.559261 98.312605 51.587227 141.965983 97.925378 1.953345 2.06521 3.545277 4.207866 5.025344 6.23005l15.282555 20.015328-9.981849 5.421177c-0.800269 0.430252-81.154151 44.143866-101.367395 54.900168-11.074689 5.877244-23.508975 4.035765-32.458218-4.801614a547.383933 547.383933 0 0 0-13.441076-12.941983c-45.02158-41.562353-99.680807-63.006118-162.480403-63.746151-29.71321-0.395832-55.958588 2.719193-80.233412 9.465546-31.881681 8.889008-56.173714 22.201008-74.261513 40.684639-36.416538 37.234017-45.753008 81.334857-27.75126 131.072 10.549782 29.162487 31.993546 51.587227 65.544605 68.564974M2495.978487 181.144739h149.142589V675.349513H2495.978487zM1947.467294 380.84195c69.786891 0.01721 139.573782 0 209.360672-0.017211h63.531026c15.403025 0 27.949176-3.829244 38.344067-11.668436 14.043429-10.601412 19.129008-28.964571 12.959193-46.777009-2.839664-8.192-8.914824-14.37042-17.554286-17.881277-6.625882-2.684773-14.508101-4.732773-24.119932-6.307496-5.946084-0.946555-12.27079-0.93795-18.965513-0.929345l-2.98595 0.008606c-67.63563-0.05163-135.25405-0.043025-202.90689-0.043026h-57.662387v83.615194z m282.55516 110.64363c-3.390387-1.462857-7.658487-2.151261-12.158925-2.899899l-1.927529-0.309782c-1.523092-0.258151-3.528067-0.206521-5.644908-0.146286-1.04121 0.025815-2.08242 0.05163-3.115025 0.051631h-259.614117v70.217143l0.989579 0.008605 33.103597 0.01721c73.401008 0.03442 149.314689 0.06884 223.963429-0.129076 9.035294-0.01721 16.289345-0.920739 22.140773-2.753613 14.42205-4.509042 22.622655-15.230924 23.104538-30.220908 0.473277-14.878118-7.710118-28.155697-20.841412-33.835025z m128.413042-52.705883c30.358588 31.090017 41.037445 75.483429 28.560134 121.167597-7.589647 27.794286-23.595025 51.260235-48.936874 71.74884-34.566454 27.940571-75.380168 42.569143-121.331092 43.481278-26.434689 0.516303-384.430252 0.189311-399.652572 0.172101h-9.577411V180.594017h46.036974c97.753277 0 359.553076 0.008605 379.645849 0.146286 32.053782 0.215126 62.033748 6.204235 89.088 17.812436 51.948639 22.244034 82.823529 58.892908 91.755563 108.922622 5.300706 29.60995 1.196101 57.481681-12.193344 82.797715-9.637647 18.251294-23.577815 33.86084-43.395227 48.506621zM3531.061782 729.802218h-18.913883v11.17795h51.458151v-11.186555h-19.085983v-56.104874h-13.458285zM3574.551664 740.980168h14.912538l11.453311-31.460034c1.462857-4.18205 2.727798-8.639462 4.096-12.993613h0.447462c1.462857 4.354151 2.641748 8.811563 4.096 12.993613l11.186554 31.460034h14.903933v-67.291429h-12.27079V701.801412c0 6.367731 0.998185 15.730017 1.634958 22.089143h-0.361412l-5.455596-15.816068-10.369076-28.276168h-7.727328l-10.455126 28.276168-5.360941 15.816068h-0.370017c0.636773-6.367731 1.729613-15.721412 1.729614-22.089143v-28.095462h-12.090084v67.282823z"  horiz-adv-x="3639" />

    
    <glyph glyph-name="Dropdown" unicode="&#59052;" d="M507.099429 180.443429l257.243428 321.828571c8.484571 10.971429 1.170286 28.013714-13.458286 28.013714H236.470857c-14.628571 0-21.942857-17.042286-13.385143-28.013714l257.170286-321.828571c7.314286-8.557714 19.529143-8.557714 26.843429 0z"  horiz-adv-x="1024" />

    
    <glyph glyph-name="Editmode" unicode="&#59065;" d="M768 742.4a102.4 102.4 0 0 0 102.4-102.4v-512a102.4 102.4 0 0 0-102.4-102.4H256a102.4 102.4 0 0 0-102.4 102.4V640a102.4 102.4 0 0 0 102.4 102.4h512z m-247.1936-226.4576l-149.9136-150.1696a10.9568 10.9568 0 0 1-2.048-3.3792l-60.928-167.0144a11.776 11.776 0 0 1 2.7648-12.4416 11.776 11.776 0 0 1 12.4928-2.8672l167.1168 60.928c1.28 0.512 2.3552 1.28 3.584 1.8944l150.016 150.016-11.8272 11.8272-24.576 24.576-6.656 6.656-36.864 36.864-13.5168 13.4656-29.696 29.6448z m-131.9936-168.1408L475.6992 261.12l-82.6368-30.1056-34.304 34.3552 30.0544 82.4832z m253.44 228.4032a43.2128 43.2128 0 0 1-61.0304 0l-46.8992-46.848 29.0304-29.0304 94.0544-93.952 46.7968 46.7968a43.264 43.264 0 0 1 0 60.9792z"  horiz-adv-x="1024" />

    
    <glyph glyph-name="zoomin" unicode="&#59066;" d="M469.333333 810.666667a384 384 0 0 0 300.032-623.658667l156.8-156.842667a42.666667 42.666667 0 0 0-56.32-63.872l-4.010666 3.541334-156.842667 156.8A384 384 0 1 0 469.333333 810.666667z m0-85.333334a298.666667 298.666667 0 1 1 0-597.333333 298.666667 298.666667 0 0 1 0 597.333333z m0-128a42.666667 42.666667 0 0 0 42.368-37.674666L512 554.666667v-85.333334h85.333333a42.666667 42.666667 0 0 0 4.992-85.034666L597.333333 384h-85.333333v-85.333333a42.666667 42.666667 0 0 0-85.034667-4.992L426.666667 298.66666699999996v85.333333H341.333333a42.666667 42.666667 0 0 0-4.992 85.034667L341.333333 469.333333h85.333334V554.666667a42.666667 42.666667 0 0 0 42.666666 42.666666z"  horiz-adv-x="1024" />

    
    <glyph glyph-name="zoomout" unicode="&#59067;" d="M469.333333 810.666667a384 384 0 0 0 300.032-623.658667l156.8-156.842667a42.666667 42.666667 0 0 0-56.32-63.872l-4.010666 3.541334-156.842667 156.8A384 384 0 1 0 469.333333 810.666667z m0-85.333334a298.666667 298.666667 0 1 1 0-597.333333 298.666667 298.666667 0 0 1 0 597.333333z m128-256a42.666667 42.666667 0 0 0 4.992-85.034666L597.333333 384H341.333333a42.666667 42.666667 0 0 0-4.992 85.034667L341.333333 469.333333h256z"  horiz-adv-x="1024" />

    
    <glyph glyph-name="oval" unicode="&#59068;" d="M512 810.666667c235.648 0 426.666667-191.018667 426.666667-426.666667s-191.018667-426.666667-426.666667-426.666667S85.333333 148.352 85.333333 384 276.352 810.666667 512 810.666667z m0-85.333334a341.333333 341.333333 0 1 1 0-682.666666 341.333333 341.333333 0 0 1 0 682.666666z"  horiz-adv-x="1024" />

    
    <glyph glyph-name="arrow" unicode="&#59069;" d="M853.333333 768h0.853334c0.981333 0 1.962667-0.085333 2.986666-0.170667L853.333333 768a43.008 43.008 0 0 0 26.325334-9.088c2.688-2.133333 5.12-4.565333 7.253333-7.253333l-3.413333 3.84a43.008 43.008 0 0 0 12.202666-25.173334l0.128-1.28 0.128-2.346666L896 725.333333v-341.333333a42.666667 42.666667 0 0 0-85.034667-4.992L810.666667 384V622.336L200.832 12.501333a42.666667 42.666667 0 0 0-63.872 56.32l3.541333 4.010667L750.250667 682.666667H512a42.666667 42.666667 0 0 0-42.368 37.674666L469.333333 725.333333a42.666667 42.666667 0 0 0 37.674667 42.368L512 768h341.333333z"  horiz-adv-x="1024" />

    
    <glyph glyph-name="rectangle" unicode="&#59070;" d="M810.666667 768a85.333333 85.333333 0 0 0 85.333333-85.333333v-597.333334a85.333333 85.333333 0 0 0-85.333333-85.333333H213.333333a85.333333 85.333333 0 0 0-85.333333 85.333333V682.666667a85.333333 85.333333 0 0 0 85.333333 85.333333h597.333334z m0-85.333333H213.333333v-597.333334h597.333334V682.666667z"  horiz-adv-x="1024" />

    
    <glyph glyph-name="cloud" unicode="&#59071;" d="M741.973333 788.992l-3.498666-0.213333-8.32-0.853334a165.12 165.12 0 0 1-98.389334-50.432l-3.413333 3.626667A163.84 163.84 0 0 1 512 789.333333l-10.069333-0.341333-8.661334-0.896A169.984 169.984 0 0 1 398.933333 744.106667l-6.997333-6.869334-3.626667 3.84A163.84 163.84 0 0 1 272 789.333333 165.333333 165.333333 0 0 1 106.666667 624l0.213333-8.618667A164.949333 164.949333 0 0 1 156.586667 505.6l1.749333-1.664-3.2-3.072A164.821333 164.821333 0 0 1 106.666667 384l0.213333-8.618667a164.949333 164.949333 0 0 1 49.664-109.738666l1.749333-1.664-3.2-3.072a165.333333 165.333333 0 0 1 116.906667-282.24l8.618667 0.213333A164.949333 164.949333 0 0 1 390.4 28.586667l1.621333 1.749333 3.114667-3.2A164.821333 164.821333 0 0 1 512-21.333333l8.618667 0.213333a164.949333 164.949333 0 0 1 109.738666 49.664l1.621334 1.749333 3.114666-3.2a165.333333 165.333333 0 0 1 282.24 116.906667l-0.213333 8.533333a164.778667 164.778667 0 0 1-48.213333 108.373334l-3.242667 3.072 3.242667 3.114666A164.821333 164.821333 0 0 1 917.333333 384l-0.213333 8.533333a164.778667 164.778667 0 0 1-48.213333 108.373334l-3.242667 3.072 3.242667 3.114666a165.333333 165.333333 0 0 1-116.906667 282.24l-10.069333-0.341333z m10.026667-84.992a80 80 0 0 0 6.272-159.744l-6.272-0.256-4.693333-0.256a40.021333 40.021333 0 0 1 0-79.488l4.693333-0.256a80 80 0 0 0 6.272-159.744l-6.272-0.256-4.693333-0.256a40.021333 40.021333 0 0 1 0-79.488l4.693333-0.256a80 80 0 1 0-80-80 39.978667 39.978667 0 0 1-79.744 4.693333l-0.469333-10.666666a80 80 0 0 0-159.786667 5.973333 39.978667 39.978667 0 0 1-79.744 4.693333l-0.469333-10.666666a80 80 0 1 0-86.058667 85.76l10.922667 0.469333a40.021333 40.021333 0 0 1 0 79.488l-4.650667 0.256-5.973333 0.213333a80 80 0 0 0-0.298667 159.573334l10.922667 0.469333a40.021333 40.021333 0 0 1 0 79.488l-4.650667 0.256-5.973333 0.213333A80 80 0 1 0 351.232 635.306667l0.64-6.570667 0.128-5.888 0.341333-4.181333 0.853334-4.394667 0.981333-3.285333 1.578667-3.968 2.176-4.010667 2.389333-3.413333 3.925333-4.394667 3.968-3.370667 4.48-2.858666 2.304-1.194667 3.925334-1.578667 5.504-1.493333 4.266666-0.554667 3.328-0.128 5.333334 0.341334 4.394666 0.853333 2.389334 0.682667 4.096 1.536 4.778666 2.517333 3.584 2.517333 3.029334 2.602667 2.816 2.986667 1.706666 2.133333 2.901334 4.522667 1.621333 3.242666 1.536 4.224 1.109333 4.522667 0.512 4.224 0.426667 9.045333a80 80 0 0 0 73.130667 73.770667L512 704c40.192 0 73.728-29.738667 79.232-68.693333l0.64-6.570667 0.128-5.888 0.341333-4.181333 0.853334-4.394667 0.981333-3.285333 1.578667-3.968 2.176-4.010667 2.389333-3.413333 3.925333-4.394667 3.968-3.370667 4.48-2.858666 2.304-1.194667 3.925334-1.578667 5.504-1.493333 4.266666-0.554667 3.328-0.128 5.333334 0.341334 4.394666 0.853333 2.389334 0.682667 4.096 1.536 4.778666 2.517333 3.584 2.517333 3.029334 2.602667 2.816 2.986667 1.706666 2.133333 2.901334 4.522667 1.621333 3.242666 1.536 4.224 1.109333 4.522667 0.512 4.224 0.426667 9.045333a80 80 0 0 0 73.130667 73.770667l6.613333 0.256z"  horiz-adv-x="1024" />

    
    <glyph glyph-name="display" unicode="&#59072;" d="M512 682.666667c173.482667 0 314.88-94.250667 420.906667-277.290667a42.666667 42.666667 0 0 0 0-42.752C826.88 179.584 685.482667 85.333333 512 85.333333s-314.88 94.250667-420.906667 277.290667a42.666667 42.666667 0 0 0 0 42.752C197.12 588.416 338.517333 682.666667 512 682.666667z m0-85.333334c-132.181333 0-241.365333-67.413333-330.154667-206.848L177.792 384l4.053333-6.485333c85.930667-134.912 190.976-202.410667 317.44-206.634667L512 170.666667c132.181333 0 241.365333 67.413333 330.154667 206.848l4.010666 6.485333-4.010666 6.485333c-85.930667 134.912-190.976 202.410667-317.44 206.634667z m0-42.666666a170.666667 170.666667 0 1 0 0-341.333334 170.666667 170.666667 0 0 0 0 341.333334z"  horiz-adv-x="1024" />

    
    <glyph glyph-name="hide" unicode="&#59073;" d="M811.136 562.474667c44.672-41.728 85.333333-94.165333 121.770667-157.098667a42.666667 42.666667 0 0 0 0-42.752C826.88 179.584 685.482667 85.333333 512 85.333333c-53.504 0-103.936 8.96-151.210667 26.709334l68.224 68.266666c18.688-4.565333 37.930667-7.466667 57.685334-8.789333l12.586666-0.64L512 170.666667c127.914667 0 234.282667 63.146667 321.493333 193.578666l8.661334 13.269334 4.010666 6.485333-4.010666 6.485333c-28.330667 44.501333-58.752 81.664-91.349334 111.658667l60.330667 60.330667zM286.165333 97.834667a42.666667 42.666667 0 0 0-63.872 56.32l3.541334 4.010666 139.093333 139.136v0.042667l233.728 233.728 139.178667 139.093333a42.666667 42.666667 0 0 0 63.872-56.32l-3.541334-4.010666-139.093333-139.136v-0.042667l-233.728-233.728-0.042667 0.042667-139.093333-139.136zM512 682.666667c53.504 0 103.936-8.96 151.253333-26.709334l-68.266666-68.266666a343.808 343.808 0 0 1-57.685334 8.789333l-12.586666 0.64L512 597.333333c-127.914667 0-234.282667-63.146667-321.493333-193.578666l-8.661334-13.269334-4.053333-6.485333 4.053333-6.485333c28.330667-44.501333 58.752-81.664 91.349334-111.658667L212.906667 205.525333c-44.672 41.728-85.333333 94.165333-121.770667 157.098667a42.666667 42.666667 0 0 0 0 42.752C197.12 588.416 338.517333 682.666667 512 682.666667z m164.906667-254.506667A170.922667 170.922667 0 0 0 512 213.333333c-15.274667 0-30.08 2.005333-44.16 5.76l209.066667 209.066667zM512 554.666667c15.274667 0 30.08-2.005333 44.202667-5.76l-209.066667-209.066667A170.88 170.88 0 0 0 512 554.666667z"  horiz-adv-x="1024" />

    
    <glyph glyph-name="xinxigengxin" unicode="&#59547;" d="M726.33 20.85c-6.9 0-13.9 0.38-20.81 1.13-25.67 2.78-50.21 10.61-72.93 23.26-22.73 12.65-42.3 29.39-58.18 49.75-15.33 19.65-26.58 41.82-33.43 65.89-6.85 24.07-8.96 48.83-6.28 73.62 2.78 25.67 10.61 50.21 23.26 72.93 12.65 22.72 29.39 42.3 49.75 58.18 19.65 15.33 41.82 26.58 65.89 33.43 24.07 6.85 48.84 8.96 73.62 6.28 25.67-2.78 50.21-10.61 72.93-23.26 12-6.69 23.18-14.57 33.42-23.56v11.88c0 13.63 11.09 24.72 24.72 24.72S903 384.01 903 370.38v-76.76c0-13.63-11.09-24.72-24.71-24.72h-70c-13.63 0-24.72 11.09-24.72 24.72s11.09 24.71 24.72 24.71h16.07c-8.46 7.9-17.9 14.77-28.25 20.53-33.45 18.63-72.15 23.11-108.97 12.63-36.82-10.48-67.36-34.67-85.98-68.12s-23.11-72.15-12.63-108.97c10.48-36.82 34.67-67.36 68.12-85.98 33.45-18.62 72.15-23.11 108.97-12.63 36.82 10.48 67.36 34.67 85.98 68.12 12.59 22.6 18.83 48.13 18.07 73.82-0.4 13.62 10.35 25.03 23.97 25.44 13.65 0.4 25.04-10.37 25.44-23.97 1.03-34.6-7.37-68.95-24.29-99.34-12.65-22.73-29.39-42.3-49.75-58.18-19.65-15.33-41.82-26.58-65.89-33.43-17.28-4.91-35.04-7.4-52.82-7.4zM333.32 597.93c-13.71-0.02-25.16 10.42-26.4 24.06-1.24 13.65 8.15 25.98 21.63 28.42l4.76 0.42h314.45c13.71 0.02 25.16-10.42 26.4-24.06 1.24-13.65-8.15-25.99-21.63-28.42l-4.76-0.42H333.32zM333.32 464.25c-13.71-0.02-25.16 10.42-26.4 24.06-1.24 13.65 8.15 25.98 21.63 28.42l4.76 0.42h164.13c13.71 0.02 25.16-10.42 26.4-24.06 1.24-13.65-8.15-25.99-21.63-28.42l-4.76-0.42H333.32zM333.32 330.57c-13.71-0.02-25.16 10.42-26.4 24.06-1.24 13.65 8.15 25.98 21.63 28.42l4.76 0.42h122.15c13.71 0.02 25.16-10.42 26.4-24.06 1.24-13.65-8.15-25.99-21.63-28.42l-4.76-0.42H333.32zM568.24-44.68H242.51c-37.26 0-67.57 30.31-67.57 67.57V740.7c0 37.26 30.31 67.57 67.57 67.57h528.27c32.84 0 59.56-26.72 59.56-59.56v-270.57c0-13.81-11.19-25-25-25s-25 11.19-25 25V748.71c0 5.27-4.29 9.56-9.56 9.56H242.51c-9.69 0-17.57-7.88-17.57-17.57v-717.8c0-9.69 7.88-17.57 17.57-17.57h325.73c13.81 0 25-11.19 25-25s-11.19-25.01-25-25.01z"  horiz-adv-x="1024" />

    
    <glyph glyph-name="ReleaseComplete" unicode="&#59078;" d="M768 742.4a102.4 102.4 0 0 0 102.4-102.4v-512a102.4 102.4 0 0 0-102.4-102.4H256a102.4 102.4 0 0 0-102.4 102.4V640a102.4 102.4 0 0 0 102.4 102.4h512z m-51.2-537.6H307.2l-4.608-0.4096A25.6 25.6 0 0 1 307.2 153.6h409.6l4.608 0.4096A25.6 25.6 0 0 1 716.8 204.8z m19.968 376.5248a25.6 25.6 0 0 1-36.2496 0l-235.3664-235.3152-126.6688 126.6688a25.6 25.6 0 0 1-36.1984-36.1984l144.7936-144.7936a25.4976 25.4976 0 0 1 15.9232-7.424h4.352l4.352 0.768a25.4976 25.4976 0 0 1 11.5712 6.656l253.44 253.44a25.6 25.6 0 0 1 0 36.1984z"  horiz-adv-x="1024" />

    
    <glyph glyph-name="Release" unicode="&#59079;" d="M768 742.4a102.4 102.4 0 0 0 102.4-102.4v-512a102.4 102.4 0 0 0-102.4-102.4H256a102.4 102.4 0 0 0-102.4 102.4V640a102.4 102.4 0 0 0 102.4 102.4h512z m-51.2-537.6H307.2l-4.608-0.4096a25.6 25.6 0 0 1 0-50.3808L307.2 153.60000000000002h409.6l4.608 0.4096A25.6 25.6 0 0 1 716.8 204.79999999999995zM494.08 632.5248L314.624 451.4816a25.7536 25.7536 0 0 1 0-36.1984 25.2416 25.2416 0 0 1 35.8912 0l136.0896 137.2672-1.792-245.3504c0-14.1312 11.3664-25.6 25.3952-25.6a25.4976 25.4976 0 0 1 25.344 25.6l1.792 245.3504 136.1408-137.2672a25.2416 25.2416 0 0 1 35.84 0 25.7536 25.7536 0 0 1 0 36.1984L529.92 632.5248a25.2416 25.2416 0 0 1-35.84 0z"  horiz-adv-x="1024" />

    
    <glyph glyph-name="jishuhuishang" unicode="&#59080;" d="M512 435.2v-358.4H307.2l-51.2-51.2-51.2 51.2H102.4V435.2h409.6z m409.6 256v-614.4h-358.4v51.2h153.6V640H204.8v-153.6H153.6V691.2h768z m-460.8-307.2H153.6v-256h72.3968l30.0032-29.952 30.0032 29.952H460.8v256z m409.6 102.4h-102.4v-358.4h102.4V486.4zM307.2 230.4v-51.2H204.8v51.2h102.4z m102.4 102.4v-51.2H204.8v51.2h204.8z m460.8 307.2h-102.4v-102.4h102.4V640z"  horiz-adv-x="1024" />

    
    <glyph glyph-name="tuzhixiaoshen" unicode="&#59081;" d="M307.2 230.4a204.8 204.8 0 0 0 204.544-194.56L512 25.6H102.4a204.8 204.8 0 0 0 204.8 204.8z m614.4 460.8v-614.4h-358.4v51.2h153.6V640H204.8v-153.6H153.6V691.2h768zM307.2 179.2a153.6 153.6 0 0 1-141.2096-93.0304L162.304 76.8h289.7408l-0.2048 0.6144a153.7024 153.7024 0 0 1-135.6288 101.5296L307.2 179.2z m563.2 307.2h-102.4v-358.4h102.4V486.4zM307.2 435.2a102.4 102.4 0 1 0 0-204.8 102.4 102.4 0 0 0 0 204.8z m0-51.2a51.2 51.2 0 1 1 0-102.4 51.2 51.2 0 0 1 0 102.4z m563.2 256h-102.4v-102.4h102.4V640z"  horiz-adv-x="1024" />

    
    <glyph glyph-name="jishupingshen" unicode="&#59082;" d="M921.6 691.2v-563.2h-102.4l-102.4-102.4-102.4 102.4h-51.2v51.2h72.3968L716.8 98.048 798.0032 179.20000000000005H870.4V640H204.8v-153.6H153.6V691.2h768zM307.2 230.39999999999998a204.8 204.8 0 0 0 204.544-194.56L512 25.600000000000023H102.4a204.8 204.8 0 0 0 204.8 204.8z m0-51.2a153.6 153.6 0 0 1-141.2096-93.0304L162.304 76.79999999999995h289.7408l-0.2048 0.6144a153.7024 153.7024 0 0 1-135.6288 101.5296L307.2 179.20000000000005z m0 256a102.4 102.4 0 1 0 0-204.8 102.4 102.4 0 0 0 0 204.8z m0-51.2a51.2 51.2 0 1 1 0-102.4 51.2 51.2 0 0 1 0 102.4z m460.8-51.2v-51.2h-256v51.2h256z m0 102.4v-51.2H460.8V435.2h307.2z m0 102.4v-51.2H307.2V537.6h460.8z"  horiz-adv-x="1024" />

    
    <glyph glyph-name="cailiaozuofa" unicode="&#59083;" d="M614.4 128h51.2V537.6H256v-51.2h358.4v-358.4z m-51.2 307.2H204.8v-358.4h358.4V435.2z m256 256H358.4v-102.4h358.4v-358.4h102.4V691.2z m-204.8-665.6H153.6V486.4h51.2V588.8h102.4V742.4h563.2v-563.2h-153.6v-102.4h-102.4v-51.2z"  horiz-adv-x="1024" />

    
    <glyph glyph-name="shejishuoming" unicode="&#59084;" d="M819.2 230.39999999999998h25.6a76.8 76.8 0 0 0 0-153.6h-665.6A76.8 76.8 0 0 0 102.4 153.60000000000002V691.2h716.8v-460.8zM179.2 179.20000000000005a25.6 25.6 0 1 1 0-51.2 25.6 25.6 0 0 1 0 51.2z m665.6 0H251.648a76.6976 76.6976 0 0 0 0-51.2H844.8a25.6 25.6 0 0 1 4.608 50.7904L844.8 179.20000000000005zM614.4 640H153.6v-413.952c8.0384 2.816 16.64 4.352 25.6 4.352H614.4V640z m153.6-409.6v51.2h-102.4v-51.2h102.4z m0 102.4V640h-102.4v-307.2h102.4z m-256 51.2v-51.2H204.8v51.2h307.2z m51.2 102.4v-51.2H204.8V486.4h358.4z m0 102.4v-51.2H307.2V588.8h256z"  horiz-adv-x="1024" />

    
    <glyph glyph-name="tuzhiqianpi" unicode="&#59085;" d="M460.8 384v-51.2H384v-153.6H512v-153.6H102.4v153.6h128v153.6H153.6v51.2h307.2z m460.8 307.2v-614.4h-358.4v51.2h153.6V640H204.8v-204.8H153.6V691.2h768zM460.8 128H153.6v-51.2h307.2v51.2z m409.6 358.4h-102.4v-358.4h102.4V486.4zM332.8 332.8h-51.2v-153.6h51.2v153.6zM870.4 640h-102.4v-102.4h102.4V640z"  horiz-adv-x="1024" />

    
    <glyph glyph-name="tuzhimulucehua" unicode="&#59086;" d="M307.2 179.20000000000005v-153.6H102.4v153.6h204.8z m614.4 0v-153.6H358.4v153.6h563.2zM256 128H153.6v-51.2h102.4v51.2z m614.3488 0h-460.8v-51.2h460.8v51.2zM307.2 384v-153.6H102.4v153.6h204.8z m614.4 0v-153.6H358.4v153.6h563.2zM256 332.79999999999995H153.6v-51.2h102.4v51.2z m614.3488 0h-460.8v-51.2h460.8v51.2zM921.6 691.2v-204.8H102.4V691.2h819.2z m-51.2-51.2H153.6v-102.4h716.8V640z"  horiz-adv-x="1024" />

    
    <glyph glyph-name="chengguoshangchuan" unicode="&#59087;" d="M256 128v-102.3488h307.2V128h51.2v-153.6H204.8v153.6h51.2zM768 793.6l51.2-102.4v-665.6h-153.6v51.2h102.4V679.0656L736.3072 742.4H716.8v-51.2l-51.2-51.2H358.4L307.2 691.2V742.4H256v-358.4H204.8V793.6h563.2z m-358.4-501.4016l94.9248-94.8736-36.2496-36.2496-33.0752 33.1776V76.79999999999995h-51.2v117.4528l-33.0752-33.1776-36.2496 36.2496L409.6 292.1984zM716.8 435.2v-51.2h-153.6V435.2h153.6z m0 102.4v-51.2H307.2V537.6h409.6z m-51.2 204.8H358.4v-29.952L379.648 691.2h264.6528L665.6 712.4992V742.4z"  horiz-adv-x="1024" />

    
    <glyph glyph-name="chengguoqueren" unicode="&#59088;" d="M409.6 384a204.8 204.8 0 1 0 0-409.6 204.8 204.8 0 0 0 0 409.6z m358.4 409.6l51.2-102.4v-665.6h-153.6v51.2h102.4V679.0656L736.3072 742.4H716.8v-51.2l-51.2-51.2H358.4L307.2 691.2V742.4H256v-358.4H204.8V793.6h563.2z m-358.4-460.8a153.6 153.6 0 1 1 0-307.2 153.6 153.6 0 0 1 0 307.2z m58.6752-84.2752l36.2496-36.2496L384 91.80160000000001l-69.3248 69.2736 36.2496 36.2496 33.0752-33.1264 84.2752 84.3264zM716.8 435.2v-51.2h-153.6V435.2h153.6z m0 102.4v-51.2H307.2V537.6h409.6z m-51.2 204.8H358.4v-29.952L379.648 691.2h264.6528L665.6 712.4992V742.4z"  horiz-adv-x="1024" />

    
    <glyph glyph-name="huiyijiyao" unicode="&#59089;" d="M307.2 179.20000000000005a204.8 204.8 0 0 0 204.544-194.56L512-25.600000000000023H102.4a204.8 204.8 0 0 0 204.8 204.8z m358.4 563.2v-716.8h-102.4v51.2h51.2V691.2H307.2v-256H256V691.2H204.8v-256H153.6V742.4h512z m128 0L870.4 640v-614.4h-153.6V640l76.8 102.4zM307.2 128a153.6 153.6 0 0 1-141.2096-93.0304L162.304 25.600000000000023h289.7408l-0.2048 0.6144a153.7024 153.7024 0 0 1-135.6288 101.5296L307.2 128z m486.4 529.0496l-25.6-34.0992V76.79999999999995h51.2V622.9504l-25.6 34.0992zM307.2 384a102.4 102.4 0 1 0 0-204.8 102.4 102.4 0 0 0 0 204.8z m0-51.2a51.2 51.2 0 1 1 0-102.4 51.2 51.2 0 0 1 0 102.4z m153.6 204.8v-51.2H358.4V537.6h102.4z m102.4 102.4v-51.2H358.4V640h204.8z"  horiz-adv-x="1024" />

    
    <glyph glyph-name="shijian" unicode="&#59127;" d="M512 793.6a409.6 409.6 0 1 0 0-819.2 409.6 409.6 0 0 0 0 819.2z m0-51.2a358.4 358.4 0 1 1 0-716.8 358.4 358.4 0 0 1 0 716.8z m0-76.8a25.6 25.6 0 0 0 25.1904-20.992L537.6 640v-230.4H716.8a25.6 25.6 0 0 0 4.608-50.7904L716.8 358.4h-204.8a25.6 25.6 0 0 0-25.6 25.6V640a25.6 25.6 0 0 0 25.6 25.6z"  horiz-adv-x="1024" />

    
    <glyph glyph-name="xiazai" unicode="&#59128;" d="M845.2096 384a25.6 25.6 0 0 0 25.1904-20.992l0.4096-4.608v-204.8a128 128 0 0 0-119.552-127.744l-8.448-0.256h-460.8a128 128 0 0 0-127.6928 119.6032l-0.3072 8.3968v204.8A25.6 25.6 0 0 0 204.8 363.008l0.4096-4.608v-204.8a76.8 76.8 0 0 1 69.4272-76.4416l7.3728-0.3584h460.8a76.8 76.8 0 0 1 76.4416 69.4272l0.3584 7.3728v204.8a25.6 25.6 0 0 0 25.6 25.6zM512 742.4a25.6 25.6 0 0 0 25.6-25.6v-400.7936l137.3184 137.3184a25.6 25.6 0 0 0 36.1984-36.2496l-180.992-180.992a25.6 25.6 0 0 0-36.2496 0L312.8832 417.0752a25.6 25.6 0 0 0 36.1984 36.2496l137.2672-137.3184L486.4 716.8A25.6 25.6 0 0 0 512 742.4z"  horiz-adv-x="1024" />

    
    <glyph glyph-name="qizi" unicode="&#59129;" d="M202.496 676.1984l1.536-4.4032 153.6-614.4a25.6 25.6 0 0 0-48.128-16.7936l-1.536 4.4032-153.6 614.4a25.6 25.6 0 0 0 48.128 16.7936zM665.6 690.688a492.032 492.032 0 0 1 204.8 0c-42.0864-125.9008-90.3168-171.52-153.6-204.3392-63.2832-32.8704-189.184-54.7328-256-102.4-44.544-31.744-78.6944-65.8944-102.4-102.4L256 690.7392c51.3536 29.7984 102.5536 46.848 153.6 51.2 74.9568 6.2976 153.6-29.6448 256-51.2z m-247.6032 0.512l-4.096-0.3584a289.7408 289.7408 0 0 1-87.552-22.1184l-10.8544-4.8128 68.9152-275.4048 0.768 0.6656c9.3696 8.3456 19.3024 16.5376 29.7984 24.576l16.0768 11.8784c30.8224 22.016 67.7888 38.3488 123.392 57.1904l15.5648 5.1712c10.0352 3.2768 50.6368 16.2304 60.4672 19.456l20.3264 6.912a335.36 335.36 0 0 1 42.3936 17.408c40.5504 21.0944 69.12 46.6944 93.696 91.5968l3.072 5.9392-11.6736-0.512a543.232 543.232 0 0 0-102.7072 7.8848l-20.48 3.9424c-19.3024 4.0448-37.9904 8.6016-59.8016 14.3872l-72.2432 19.6096C461.6192 690.944 444.928 693.248 417.9968 691.2z"  horiz-adv-x="1024" />

    
    <glyph glyph-name="zhengjian" unicode="&#59130;" d="M870.4 691.2a51.2 51.2 0 0 0 51.2-51.2v-512a51.2 51.2 0 0 0-51.2-51.2H153.6a51.2 51.2 0 0 0-51.2 51.2V640a51.2 51.2 0 0 0 51.2 51.2h716.8z m0-51.2H153.6v-512h307.2v131.84a51.2 51.2 0 0 0 67.584 48.5376l25.0368-8.192c35.584-11.0592 62.464-17.152 80.6912-18.2272l5.7344-0.2048c22.6816-0.8192 59.8016 7.68 111.4112 25.5488a51.2 51.2 0 0 0 67.9424-48.384V128h51.2V640z m-358.4-380.1088V128h256v130.9184l-13.9776-4.7616c-45.568-15.0528-80.7936-23.04-106.6496-23.6544l-7.4752 0.0512c-24.064 0-56.7808 6.8096-100.352 20.3776L512 259.8912zM640 588.8a128 128 0 1 0 0-256 128 128 0 0 0 0 256z m0-51.2a76.8 76.8 0 1 1 0-153.6 76.8 76.8 0 0 1 0 153.6z m-204.8-51.2a25.6 25.6 0 0 0 0-51.2h-204.8a25.6 25.6 0 0 0 0 51.2h204.8z m0 102.4a25.6 25.6 0 0 0 0-51.2h-204.8a25.6 25.6 0 0 0 0 51.2h204.8z"  horiz-adv-x="1024" />

    
    <glyph glyph-name="jiantou-shang" unicode="&#59131;" d="M289.0752 263.4752a25.6 25.6 0 0 0-2.9184 32.6656l2.9184 3.584 204.8 204.8a25.6 25.6 0 0 0 32.6656 2.9184l3.584-2.9184 204.8-204.8a25.6 25.6 0 0 0-32.6656-39.168l-3.584 2.9184L512 450.2016l-186.6752-186.7264a25.6 25.6 0 0 0-32.6656-2.9184l-3.584 2.9184z"  horiz-adv-x="1024" />

    
    <glyph glyph-name="xinzengrenyuan" unicode="&#59132;" d="M512 742.4a204.8 204.8 0 0 0 10.24-409.344L512 332.8h-25.6A281.6 281.6 0 0 1 204.8 51.2a25.6 25.6 0 1 0-51.2 0 332.9536 332.9536 0 0 0 239.616 319.5904A204.8 204.8 0 0 0 512 742.4z m230.4-460.8a25.6 25.6 0 0 0 25.6-25.6V179.2h76.8a25.6 25.6 0 1 0 0-51.2H768v-76.8a25.6 25.6 0 1 0-51.2 0V128h-76.8a25.6 25.6 0 1 0 0 51.2H716.8v76.8a25.6 25.6 0 0 0 25.6 25.6zM512 691.2a153.6 153.6 0 1 1 0-307.2 153.6 153.6 0 0 1 0 307.2z"  horiz-adv-x="1024" />

    
    <glyph glyph-name="tianjia" unicode="&#59133;" d="M512 742.4a25.6 25.6 0 0 0 25.6-25.6v-307.2h307.2a25.6 25.6 0 1 0 0-51.2h-307.2v-307.2a25.6 25.6 0 1 0-51.2 0v307.2h-307.2a25.6 25.6 0 1 0 0 51.2h307.2v307.2A25.6 25.6 0 0 0 512 742.4z"  horiz-adv-x="1024" />

    
    <glyph glyph-name="shoucang" unicode="&#59134;" d="M692.3264 793.6c53.3504-0.0512 97.0752-40.5504 100.9664-91.8528l0.3072-7.424v-705.7408a14.1312 14.1312 0 0 0-7.5264-12.4416 14.7456 14.7456 0 0 0-11.1616-1.1264l-3.584 1.5872-253.184 189.1328a10.24 10.24 0 0 1-9.9328 1.28l-2.3552-1.28-253.2352-189.1328a14.7456 14.7456 0 0 0-14.6944-0.4608 14.2336 14.2336 0 0 0-7.168 9.4208l-0.3584 3.072V694.272c0.0512 52.3264 41.3696 95.1296 93.696 99.0208L331.7248 793.6h360.6528zM331.776 742.4c-25.9584 0-46.9504-18.7904-49.8176-42.496L281.6 694.272v-632.1664l193.6384 144.5888a61.44 61.44 0 0 0 67.3792 4.0448l6.144-4.096L742.4 61.952V694.272c0 24.4736-19.2 44.9536-44.2368 47.7696L692.3264 742.4H331.776z"  horiz-adv-x="1024" />

    
    <glyph glyph-name="xinzengkongbaineirong" unicode="&#59135;" d="M716.8 742.4a51.2 51.2 0 0 0 51.2-51.2v-332.8a25.6 25.6 0 1 0-51.2 0V691.2H409.344L409.6 688.3328V486.4a25.6 25.6 0 0 0-20.992-25.1904L384 460.8H204.8V76.8h332.8a25.6 25.6 0 1 0 0-51.2H204.8a51.2 51.2 0 0 0-51.2 51.2V501.4016a25.6 25.6 0 0 0 7.4752 18.0736l215.4496 215.4496A25.6 25.6 0 0 0 394.5984 742.4H716.8z m25.6-460.8a25.6 25.6 0 0 0 25.1904-20.992l0.4096-4.608V179.2h76.8a25.6 25.6 0 0 0 4.608-50.7904L844.8 128H768v-76.8a25.6 25.6 0 0 0-50.7904-4.608L716.8 51.2V128h-76.8a25.6 25.6 0 0 0-4.608 50.7904L640 179.2H716.8v76.8a25.6 25.6 0 0 0 25.6 25.6zM358.4 644.4032L225.9968 512H358.4V644.4032z"  horiz-adv-x="1024" />

    
    <glyph glyph-name="xianshi" unicode="&#59136;" d="M512 640c150.8352 0 287.3344-85.3504 409.6-256-122.2656-170.6496-258.7648-256-409.6-256-150.8352 0-287.3344 85.3504-409.6 256 122.2656 170.6496 258.7648 256 409.6 256z m0-51.2C392.7552 588.8 281.9584 527.0016 178.2784 399.2064L166.2464 384l0.5632-0.768c103.1168-132.608 213.4016-199.168 331.9808-203.776L512 179.2c119.2448 0 230.0416 61.7984 333.7216 189.5936l11.9808 15.2064-0.512 0.768c-103.1168 132.608-213.4016 199.168-331.9808 203.776L512 588.8z m0-51.2a153.6 153.6 0 1 0 0-307.2 153.6 153.6 0 0 0 0 307.2z m0-51.2a102.4 102.4 0 1 1 0-204.8 102.4 102.4 0 0 1 0 204.8z"  horiz-adv-x="1024" />

    
    <glyph glyph-name="riqi" unicode="&#59137;" d="M691.2 793.6a25.6 25.6 0 0 0 25.6-25.6V742.4h51.2a102.4 102.4 0 0 0 102.4-102.4v-512a102.4 102.4 0 0 0-102.4-102.4H256a102.4 102.4 0 0 0-102.4 102.4V640a102.4 102.4 0 0 0 102.4 102.4h51.2v25.6a25.6 25.6 0 0 0 51.2 0V742.4h307.2v25.6a25.6 25.6 0 0 0 25.6 25.6zM819.2 537.6H204.8v-409.6a51.2 51.2 0 0 1 45.2096-50.8416L256 76.8h512a51.2 51.2 0 0 1 50.8416 45.2096L819.2 128V537.6z m-486.4-307.2a25.6 25.6 0 1 0 0-51.2h-51.2a25.6 25.6 0 1 0 0 51.2h51.2z m204.8 0a25.6 25.6 0 1 0 0-51.2h-51.2a25.6 25.6 0 1 0 0 51.2h51.2z m204.8 0a25.6 25.6 0 1 0 0-51.2h-51.2a25.6 25.6 0 1 0 0 51.2h51.2z m-409.6 102.4a25.6 25.6 0 1 0 0-51.2h-51.2a25.6 25.6 0 1 0 0 51.2h51.2z m204.8 0a25.6 25.6 0 1 0 0-51.2h-51.2a25.6 25.6 0 1 0 0 51.2h51.2z m204.8 0a25.6 25.6 0 1 0 0-51.2h-51.2a25.6 25.6 0 1 0 0 51.2h51.2z m-409.6 102.4a25.6 25.6 0 0 0 0-51.2h-51.2a25.6 25.6 0 0 0 0 51.2h51.2z m204.8 0a25.6 25.6 0 1 0 0-51.2h-51.2a25.6 25.6 0 0 0 0 51.2h51.2z m204.8 0a25.6 25.6 0 1 0 0-51.2h-51.2a25.6 25.6 0 1 0 0 51.2h51.2zM307.2 691.2H256a51.2 51.2 0 0 1-50.8416-45.2096L204.8 640v-51.2h614.4V640a51.2 51.2 0 0 1-45.2096 50.8416L768 691.2h-51.2v-25.6a25.6 25.6 0 1 0-51.2 0V691.2H358.4v-25.6a25.6 25.6 0 0 0-51.2 0V691.2z"  horiz-adv-x="1024" />

    
    <glyph glyph-name="zhixiang-you" unicode="&#59138;" d="M633.9584 675.6352a23.8592 23.8592 0 0 1-3.1232-34.3552L833.024 409.6H128a25.6 25.6 0 1 1 0-51.2h705.024l-202.24-231.68a23.8592 23.8592 0 0 1 2.3552-33.6896l0.8192-0.6656a26.112 26.112 0 0 1 35.9936 3.2768L921.6 384l-251.648 288.3584a26.112 26.112 0 0 1-35.9936 3.2768z"  horiz-adv-x="1024" />

    
    <glyph glyph-name="zengjia" unicode="&#59139;" d="M512 793.6a409.6 409.6 0 1 0 0-819.2 409.6 409.6 0 0 0 0 819.2z m0-204.8a25.6 25.6 0 0 0 25.6-25.6v-153.6h153.6a25.6 25.6 0 1 0 0-51.2h-153.6v-153.6a25.6 25.6 0 1 0-51.2 0v153.6h-153.6a25.6 25.6 0 1 0 0 51.2h153.6v153.6A25.6 25.6 0 0 0 512 588.8z m0 153.6a358.4 358.4 0 1 1 0-716.8 358.4 358.4 0 0 1 0 716.8z"  horiz-adv-x="1024" />

    
    <glyph glyph-name="zhixiang-xia" unicode="&#59140;" d="M803.6352 262.0416a23.8592 23.8592 0 0 1-34.3552 3.1232L537.6 62.976V768a25.6 25.6 0 1 1-51.2 0v-705.024l-231.68 202.24a23.8592 23.8592 0 0 1-33.6896-2.3552l-0.6656-0.8192a26.112 26.112 0 0 1 3.2768-35.9936L512-25.6l288.3584 251.648a26.112 26.112 0 0 1 3.2768 35.9936z"  horiz-adv-x="1024" />

    
    <glyph glyph-name="zhongzhi" unicode="&#59141;" d="M665.6 537.6a25.6 25.6 0 1 0 0 51.2h144.2304a361.4208 361.4208 0 1 1 63.5904-204.8A24.064 24.064 0 0 0 921.6 384a409.6 409.6 0 1 0-76.8 238.7968V768a25.6 25.6 0 1 0 51.2 0v-204.8a25.6 25.6 0 0 0-20.992-25.1904L870.4 537.6h-204.8z"  horiz-adv-x="1024" />

    
    <glyph glyph-name="shanchu" unicode="&#59142;" d="M793.6 537.6a25.6 25.6 0 0 0 25.1904-20.992L819.2 512v-409.6a76.8 76.8 0 0 0-69.4272-76.4416L742.4 25.6h-460.8a76.8 76.8 0 0 0-76.4416 69.4272L204.8 102.4v409.6a25.6 25.6 0 0 0 50.7904 4.608L256 512v-409.6a25.6 25.6 0 0 1 20.992-25.1904L281.6 76.8h460.8a25.6 25.6 0 0 1 25.1904 20.992L768 102.4v409.6a25.6 25.6 0 0 0 25.6 25.6z m-358.4-51.2a25.6 25.6 0 0 0 25.1904-20.992L460.8 460.8v-256a25.6 25.6 0 0 0-50.7904-4.608L409.6 204.8v256a25.6 25.6 0 0 0 25.6 25.6z m153.6 0a25.6 25.6 0 0 0 25.1904-20.992L614.4 460.8v-256a25.6 25.6 0 0 0-50.7904-4.608L563.2 204.8v256a25.6 25.6 0 0 0 25.6 25.6z m-34.0992 256a128 128 0 0 0 68.1984-19.6608l8.4992-5.888 61.696-46.1312a25.6 25.6 0 0 1 11.264-4.8128l4.096-0.3072H844.8a25.6 25.6 0 0 0 4.608-50.7904l-4.608-0.4096h-136.3456a76.8 76.8 0 0 0-39.168 10.752l-6.8608 4.608-61.696 46.08a76.8 76.8 0 0 1-37.7856 14.8992L554.752 691.2H469.2992a76.8 76.8 0 0 1-39.2192-10.752l-6.8608-4.608-61.3888-46.08a76.8 76.8 0 0 0-37.8368-14.8992l-8.2432-0.4608H179.2a25.6 25.6 0 0 0-4.608 50.7904L179.2 665.6h136.6016a25.6 25.6 0 0 1 11.8784 2.9184l3.4816 2.2016 61.3376 46.08a128 128 0 0 0 66.5088 25.1904L469.3504 742.4h85.3504z"  horiz-adv-x="1024" />

    
    <glyph glyph-name="sousuo" unicode="&#59143;" d="M486.4 742.4a332.8 332.8 0 0 0 252.7232-549.3248l123.8016-123.7504a25.6 25.6 0 0 0-36.2496-36.2496l-123.7504 123.8016A332.8 332.8 0 1 0 486.4 742.4z m0-51.2a281.6 281.6 0 1 1 0-563.2 281.6 281.6 0 0 1 0 563.2z"  horiz-adv-x="1024" />

    
    <glyph glyph-name="wujiaoxing" unicode="&#59144;" d="M521.5232 748.6464a25.6 25.6 0 0 0 14.2336-14.1824l88.7808-221.184 237.7728-16.0768a25.6 25.6 0 0 0 14.6432-45.2096l-182.8352-152.7808 58.112-231.0656a25.6 25.6 0 0 0-38.4-27.9552L512 166.912l-201.8304-126.72a25.6 25.6 0 0 0-38.4 27.9552l58.112 231.0656-182.8352 152.7808a25.6 25.6 0 0 0 14.6432 45.2096l237.7728 16.128 88.7808 221.1328a25.6 25.6 0 0 0 33.28 14.1824z m67.4816-284.2624L512 656.2816 434.9952 464.384l-206.2848-13.9264 158.6688-132.5568-50.432-200.3968L512 227.3792l175.0016-109.8752-50.3808 200.3968 158.6176 132.5568-206.2336 13.9264z"  horiz-adv-x="1024" />

    
    <glyph glyph-name="zhixiang-shang" unicode="&#59145;" d="M803.6352 505.9584a23.8592 23.8592 0 0 0-34.3552-3.1232L537.6 705.024V0a25.6 25.6 0 1 0-51.2 0V705.024L254.72 502.784a23.8592 23.8592 0 0 0-33.6896 2.3552l-0.6656 0.8192a26.112 26.112 0 0 0 3.2768 35.9936L512 793.6l288.3584-251.648a26.112 26.112 0 0 0 3.2768-35.9936z"  horiz-adv-x="1024" />

    
    <glyph glyph-name="yinzhang" unicode="&#59146;" d="M844.8 76.8a25.6 25.6 0 1 0 0-51.2h-665.6a25.6 25.6 0 1 0 0 51.2h665.6zM512 742.4a204.8 204.8 0 0 0 114.0224-374.9376c3.0208-11.9808 6.656-23.552 10.752-34.7648L768 332.8a102.4 102.4 0 0 0 102.4-102.4v-51.2a51.2 51.2 0 0 0-51.2-51.2H204.8a51.2 51.2 0 0 0-51.2 51.2v51.2a102.4 102.4 0 0 0 102.4 102.4l131.2256-0.0512c4.1472 11.1104 7.7824 22.7328 10.8544 34.6624A204.8 204.8 0 0 0 512 742.4z m0-51.2a153.6 153.6 0 0 1-93.696-275.3024l8.2944-5.9392 30.0544-20.1728-8.96-35.0208a398.4384 398.4384 0 0 0-7.8848-26.8288l-4.608-13.056-12.3904-33.3824L256 281.6a51.2 51.2 0 0 1-50.8416-45.2096L204.8 230.4v-51.1488h614.4V230.4a51.2 51.2 0 0 1-45.2096 50.8416L768.0512 281.6l-166.8608-0.1024-12.3904 33.3824a388.7104 388.7104 0 0 0-8.704 26.4192l-3.7376 13.5168-8.8576 35.0208 29.952 20.1216A153.6 153.6 0 0 1 512 691.2z"  horiz-adv-x="1024" />

    
    <glyph glyph-name="shezhi" unicode="&#59147;" d="M594.432 732.8768A358.0416 358.0416 0 0 0 772.864 629.76a102.2464 102.2464 0 0 1 82.432-142.6944C865.0752 454.4512 870.4 419.84 870.4 384a358.4 358.4 0 0 0-15.0528-103.168 102.2464 102.2464 0 0 1-82.4832-142.5408 357.376 357.376 0 0 0-178.4832-103.168 102.2464 102.2464 0 0 1-164.864 0.0512 357.5296 357.5296 0 0 0-178.432 103.1168 102.2464 102.2464 0 0 1-82.3296 142.6944 358.4 358.4 0 0 0-0.1024 206.1312 102.2464 102.2464 0 0 1 82.4832 142.592 357.632 357.632 0 0 0 178.4832 103.168 102.2464 102.2464 0 0 1 164.1984-0.9216l0.5632 0.9216z m15.36-57.6l-3.5328-2.9696A153.2416 153.2416 0 0 0 512 640c-32.6144 0-63.488 10.24-89.0368 28.416l-8.8576 6.8608-1.6384-0.512a306.432 306.432 0 0 1-102.5024-59.392l-1.3312-1.1776 0.6656-3.328c4.4032-30.208-0.256-61.44-14.08-89.6L290.304 512a153.088 153.088 0 0 0-69.1712-62.8736l-10.1888-4.1472-1.4848-7.2192c-2.048-11.776-3.4304-23.6544-4.096-35.6352L204.8 384c0-18.2272 1.536-36.1984 4.7104-53.76l1.4848-7.2192 3.1744-1.1264c28.3648-11.264 53.0432-30.9248 70.5536-56.9856l5.5808-8.9088a153.088 153.088 0 0 0 18.944-98.9184l-0.6144-3.2768 1.28-1.1776a306.688 306.688 0 0 1 88.576-54.1696l15.6672-5.6832 2.6624 2.2016a153.1904 153.1904 0 0 0 84.6848 32.6656L512 128c32.6144 0 63.488-10.24 89.0368-28.416l8.8064-6.8096 1.6896 0.512a306.176 306.176 0 0 1 102.5024 59.3408l1.2288 1.1776-0.5632 3.3792a153.1904 153.1904 0 0 0 14.08 89.5488l4.9152 9.2672a152.9344 152.9344 0 0 0 69.2224 62.8736l10.0864 4.1984 1.536 7.168c2.048 11.7248 3.4304 23.6032 4.096 35.6352L819.2 384c0 18.2272-1.536 36.1472-4.6592 53.76l-1.536 7.2192-3.072 1.1264a153.1904 153.1904 0 0 0-70.656 56.9856L733.696 512a153.088 153.088 0 0 0-18.944 98.9184l0.5632 3.328-1.2288 1.1264a306.7904 306.7904 0 0 1-102.5536 59.392l-1.7408 0.512zM512 537.6a153.6 153.6 0 1 0 0-307.2 153.6 153.6 0 0 0 0 307.2z m0-51.2a102.4 102.4 0 1 1 0-204.8 102.4 102.4 0 0 1 0 204.8z"  horiz-adv-x="1024" />

    
    <glyph glyph-name="wodebumenchengbenzhanghu" unicode="&#59148;" d="M153.6 364.9536a51.2 51.2 0 0 0 14.9504-2.2528l27.2384-8.0384c52.0192-14.8992 89.2416-22.3232 111.7696-22.3232 34.2528 1.2288 80.1792 10.8544 137.9328 28.9792a51.2 51.2 0 0 0 66.5088-48.8448V128a51.2 51.2 0 0 0-51.2-51.2H153.6a51.2 51.2 0 0 0-51.2 51.2v185.7536a51.2 51.2 0 0 0 51.2 51.2z m0-51.2V128h307.2v184.4736l-18.176-5.5808c-53.504-15.8208-97.792-24.4736-135.0144-25.7536-32.8704 0-82.944 10.9056-154.0096 32.6144zM896 230.4a25.6 25.6 0 1 0 0-51.2h-256a25.6 25.6 0 1 0 0 51.2h256z m0 153.6a25.6 25.6 0 1 0 0-51.2h-307.2a25.6 25.6 0 1 0 0 51.2h307.2zM307.2 691.2a153.6 153.6 0 1 0 0-307.2 153.6 153.6 0 0 0 0 307.2z m0-51.2a102.4 102.4 0 1 1 0-204.8 102.4 102.4 0 0 1 0 204.8z m588.8-102.4a25.6 25.6 0 1 0 0-51.2h-358.4a25.6 25.6 0 1 0 0 51.2h358.4z"  horiz-adv-x="1024" />

    
    <glyph glyph-name="zhixiang-zuo" unicode="&#59149;" d="M390.0416 675.6352a23.8592 23.8592 0 0 0 3.1232-34.3552L190.976 409.6H896a25.6 25.6 0 1 0 0-51.2H190.976l202.24-231.68c8.6016-9.9328 7.5776-24.9856-2.3552-33.6896l-0.8192-0.6656a26.112 26.112 0 0 0-35.9936 3.2768L102.4 384l251.648 288.3584a26.112 26.112 0 0 0 35.9936 3.2768z"  horiz-adv-x="1024" />

    
    <glyph glyph-name="lianjie" unicode="&#59150;" d="M565.8624 398.6944l2.5088-1.6896-5.8368 3.6352a101.888 101.888 0 0 1-50.5344 13.312 25.6 25.6 0 0 0-7.5776 50.1248l-0.9216 0.8704 7.168 0.2048h0.6656l0.9216 0.0512h1.3312l1.8944-0.0512h0.256l2.6112-0.1024c2.1504-0.0512 4.2496-0.2048 6.3488-0.3584l1.536-0.1536a148.0704 148.0704 0 0 0 19.2-3.0208l2.4064-0.512c2.7136-0.6656 5.4272-1.3824 8.0896-2.2016l2.7136-0.8192a150.528 150.528 0 0 0 35.0208-16.2816l7.3216-4.864a153.6 153.6 0 0 0 16.6912-13.7728l1.4848-1.3824 1.4336-1.4848 1.792-1.8432 1.9968-2.1504-0.3584 0.4096 0.4096-0.3584a155.2896 155.2896 0 0 0 15.7184-19.9168l1.9456-3.072 1.2288-1.9456 3.2768-5.632c5.7344-10.3936 10.1376-21.2992 13.312-32.4608l1.4336-5.5296a233.8816 233.8816 0 0 0 1.792-8.4992l0.8192-5.0176a125.44 125.44 0 0 0 1.3824-13.6704 153.2416 153.2416 0 0 0-44.7488-117.5552l-144.7936-144.7936a153.6 153.6 0 0 0-217.2416 217.2416l54.272 54.272a25.6 25.6 0 0 0 36.2496-36.1984l-54.272-54.272a102.4 102.4 0 0 1 139.1616-150.016l5.632 5.1712 144.7936 144.8448a102.1952 102.1952 0 0 1 29.44 82.944l-0.0512 0.512-0.256 2.4576-0.256 1.0752 0.1536-1.1264-0.3584 3.072-0.6656 3.328-0.6144 2.816-0.1024 0.6656-0.6144 2.5088-2.048 6.9632a101.8368 101.8368 0 0 1-6.7584 15.5648l-4.3008 7.2704-2.3552 3.328 0.3072-0.3584-1.9456 2.7648-2.2528 2.816-0.3072 0.4608-0.9728 1.024h0.0512l-0.6656 0.8192-0.9216 1.1264-1.0752 1.1264 0.3072-0.3584-5.3248 5.5808a103.0144 103.0144 0 0 1-5.9392 5.2736l-1.792 1.3824-0.2048 0.1536-0.9728 0.7168-0.512 0.4608-0.6656 0.4608-2.9184 2.048 0.3584-0.256-0.768 0.5632a101.7856 101.7856 0 0 1-3.584 2.304z m-154.3168 37.8368l0.1536-0.6656H411.648l0.512-2.1504 0.1024-0.6656 0.512-2.048 0.1024-0.4608 2.048-6.9632c1.8944-5.376 4.096-10.5984 6.8096-15.5648l4.3008-7.2704 2.2528-3.3792 1.7408-2.3552 0.7168-0.9216 1.4848-1.8944 0.8704-1.1264 0.512-0.6144 0.512-0.512 1.024-1.1776 0.9728-1.1264-0.3072 0.3584 5.376-5.5808 5.9392-5.2736 1.6896-1.3824 0.256-0.1536 0.9216-0.7168 0.6144-0.4608 0.6144-0.4608 2.9696-2.048-0.8704 0.512 1.28-0.8192c1.1776-0.8192 2.3552-1.5872 3.584-2.304l-2.6112 1.6896 5.888-3.6352c14.848-8.4992 32.1536-13.312 50.5344-13.312a25.6 25.6 0 0 0 7.5776-50.1248l0.9216-0.8704-7.168-0.2048h-5.12l-2.56 0.1024a155.136 155.136 0 0 0-6.3488 0.3584l-1.536 0.1536a148.0704 148.0704 0 0 0-19.2 3.0208l-2.4064 0.512a140.3904 140.3904 0 0 0-8.0896 2.2016l-2.7136 0.8192a150.528 150.528 0 0 0-35.0208 16.2816l-7.3216 4.864a153.6 153.6 0 0 0-16.6912 13.7728l-1.4848 1.3824-1.4336 1.4848-2.1504 2.2016 0.3072-0.3584-0.3072 0.3072-1.3824 1.4336-0.3072 0.3584a155.2896 155.2896 0 0 0-15.7184 19.9168l-1.9456 3.072-1.2288 1.9456a152.064 152.064 0 0 0-16.5376 38.0928l-1.4848 5.5296a233.8816 233.8816 0 0 0-1.792 8.4992l-0.8192 5.0176a125.44 125.44 0 0 0-1.3824 13.6704 153.2416 153.2416 0 0 0 44.7488 117.5552l144.7936 144.7936a153.6 153.6 0 0 0 217.2416-217.2416l-54.272-54.272a25.6 25.6 0 1 0-36.2496 36.1984l54.272 54.272a102.4 102.4 0 0 1-139.1616 150.016l-5.632-5.1712-144.7936-144.8448a102.1952 102.1952 0 0 1-29.44-82.944v-0.512l0.3072-2.4576 0.1536-1.0752-0.1536 1.1264 0.4608-3.072 0.6144-3.328z"  horiz-adv-x="1024" />

    
    <glyph glyph-name="xuanzeyuansu" unicode="&#59151;" d="M579.584 332.8l2.56-0.2048 2.3552-0.5632 272.7424-95.6416a16.0768 16.0768 0 0 0 10.1376-20.48 15.4624 15.4624 0 0 0-5.2224-7.5776l-69.9904-47.0528 71.68-71.8336a16.1792 16.1792 0 0 0 2.3552-19.968l-2.3552-2.9696-34.3552-34.5088a16.0768 16.0768 0 0 0-11.52-4.7104 16.2816 16.2816 0 0 0-8.9088 2.6112l-2.56 2.048-71.68 71.9872-43.7248-66.7136a16.128 16.128 0 0 0-22.016-6.7584 16.2304 16.2304 0 0 0-6.8096 7.0144l-1.1776 2.9184-97.0752 270.8992a16.384 16.384 0 0 0 15.616 21.504z m45.0048-61.2352l57.344-172.032 39.424 75.1104 75.264 39.6288-172.032 57.2928zM760.6272 640c31.1808 0 55.2448-23.3472 58.2656-53.248l0.3072-6.5024v-224.256c0-13.6704-12.8-23.9104-26.6752-23.9104a24.3712 24.3712 0 0 0-24.6784 19.456l-0.4096 4.4544v224.256c0 4.5056-0.6656 8.3456-3.8912 9.6768l-2.9184 0.512H316.5184a10.3424 10.3424 0 0 1-9.8304-6.9632l-0.512-3.2256v-392.4992a10.24 10.24 0 0 1 7.0656-9.6768l3.2768-0.512h223.5904c13.824 0 25.088-11.0592 25.088-24.7808a24.832 24.832 0 0 0-20.5824-24.3712L540.16 128H316.5184c-31.1808 0-56.832 23.3472-60.16 53.248L256 187.7504V580.2496c0 30.72 23.6032 56.1664 53.9136 59.392L316.5184 640h444.1088z m-121.6 102.4a26.5728 26.5728 0 0 0 4.7616-52.736l-4.7616-0.4608H217.7536a10.9568 10.9568 0 0 1-10.5984-8.0384l-0.3584-2.9184v-421.2736a26.5728 26.5728 0 0 0-52.736-4.7616L153.6 256.9728V678.2464c0 33.024 25.088 60.3136 57.1904 63.7952L217.7536 742.4h421.2736z"  horiz-adv-x="1024" />

    
    <glyph glyph-name="jiantou-you-copy" unicode="&#59549;" d="M391.4752 606.9248a25.6 25.6 0 0 0 32.6656 2.9184l3.584-2.9184 204.8-204.8a25.6 25.6 0 0 0 2.9184-32.6656l-2.9184-3.584-204.8-204.8a25.6 25.6 0 0 0-39.168 32.6656l2.9184 3.584L578.2016 384 391.4752 570.6752a25.6 25.6 0 0 0-2.9184 32.6656l2.9184 3.584z"  horiz-adv-x="1024" />

    
    <glyph glyph-name="jiantou-xia-copy" unicode="&#59548;" d="M734.9248 504.5248a25.6 25.6 0 0 0 2.9184-32.6656l-2.9184-3.584-204.8-204.8a25.6 25.6 0 0 0-32.6656-2.9184l-3.584 2.9184-204.8 204.8a25.6 25.6 0 0 0 32.6656 39.168l3.584-2.9184L512 317.7984l186.6752 186.7264a25.6 25.6 0 0 0 32.6656 2.9184l3.584-2.9184z"  horiz-adv-x="1024" />

    
    <glyph glyph-name="jiagou" unicode="&#59112;" d="M563.2 742.4a51.2 51.2 0 0 0 51.2-51.2v-102.4a51.2 51.2 0 0 0-51.2-51.2h-25.6v-102.4H665.6a128 128 0 0 0 127.744-119.6032l0.256-8.3968V230.4h25.6a51.2 51.2 0 0 0 51.2-51.2v-102.4a51.2 51.2 0 0 0-51.2-51.2h-102.4a51.2 51.2 0 0 0-51.2 51.2v102.4a51.2 51.2 0 0 0 51.2 51.2h25.6v76.8a76.8 76.8 0 0 1-69.4272 76.4416L665.6 384h-128v-153.6h25.6a51.2 51.2 0 0 0 51.2-51.2v-102.4a51.2 51.2 0 0 0-51.2-51.2H460.8a51.2 51.2 0 0 0-51.2 51.2v102.4a51.2 51.2 0 0 0 51.2 51.2h25.6v153.6H358.4a76.8 76.8 0 0 1-76.4416-69.4272L281.6 307.2V230.4H307.2a51.2 51.2 0 0 0 51.2-51.2v-102.4a51.2 51.2 0 0 0-51.2-51.2H204.8a51.2 51.2 0 0 0-51.2 51.2v102.4a51.2 51.2 0 0 0 51.2 51.2h25.6v76.8a128 128 0 0 0 119.6032 127.744L358.4 435.2h128V537.6H460.8a51.2 51.2 0 0 0-51.2 51.2V691.2a51.2 51.2 0 0 0 51.2 51.2h102.4zM307.2 179.2H204.8v-102.4h102.4v102.4z m256 0H460.8v-102.4h102.4v102.4z m256 0h-102.4v-102.4h102.4v102.4zM563.2 691.2H460.8v-102.4h102.4V691.2z"  horiz-adv-x="1024" />

    
    <glyph glyph-name="guanbi-da" unicode="&#59113;" d="M270.5408 661.0432l3.584-2.9184L512 420.1984l237.8752 237.9264a25.6 25.6 0 0 0 39.168-32.6656l-2.9184-3.584L548.1984 384l237.9264-237.8752a25.6 25.6 0 0 0-32.6656-39.168l-3.584 2.9184L512 347.8016l-237.8752-237.9264a25.6 25.6 0 0 0-39.168 32.6656l2.9184 3.584L475.8016 384 237.8752 621.8752a25.6 25.6 0 0 0 32.6656 39.168z"  horiz-adv-x="1024" />

    
    <glyph glyph-name="jiantou-xia" unicode="&#59114;" d="M734.9248 504.5248a25.6 25.6 0 0 0 2.9184-32.6656l-2.9184-3.584-204.8-204.8a25.6 25.6 0 0 0-32.6656-2.9184l-3.584 2.9184-204.8 204.8a25.6 25.6 0 0 0 32.6656 39.168l3.584-2.9184L512 317.7984l186.6752 186.7264a25.6 25.6 0 0 0 32.6656 2.9184l3.584-2.9184z"  horiz-adv-x="1024" />

    
    <glyph glyph-name="fujian" unicode="&#59115;" d="M568.576 786.432a153.6 153.6 0 0 0 108.544-188.16l-119.1936-445.0816-0.256 0.0512-0.3072-1.0752a102.4 102.4 0 0 0-197.12 53.9648l-0.1536 0.0512L432.9472 478.208a25.6 25.6 0 0 0 49.4592-13.312l-71.168-265.728a51.2 51.2 0 0 1 98.9184-26.4704l117.5552 438.784A102.4 102.4 0 1 1 429.8752 664.576l-119.296-445.0816a153.6 153.6 0 1 1 296.8064-79.5136l99.328 370.8928a25.6 25.6 0 1 0 49.5104-13.2096l-99.4304-370.944a204.8 204.8 0 1 0-395.6224 105.984l119.296 445.1328a153.6 153.6 0 0 0 188.1088 108.5952z"  horiz-adv-x="1024" />

    
    <glyph glyph-name="bianji" unicode="&#59116;" d="M558.5408 742.4a25.6 25.6 0 0 0 4.608-50.7904l-4.608-0.4096H274.2784c-36.096 0-65.792-27.5456-69.12-62.7712L204.8 621.7216v-475.4432c0-36.096 27.5456-65.792 62.7712-69.12l6.7072-0.3584h475.4432c36.096 0 65.792 27.5456 69.12 62.7712l0.3584 6.7072v188.2112a25.6 25.6 0 0 0 50.7904 4.608l0.4096-4.608v-188.2112c0-63.8464-49.664-116.1728-112.4352-120.4224l-8.2432-0.256H274.2784a120.6784 120.6784 0 0 0-120.4224 112.4352L153.6 146.2784V621.7216c0 63.8464 49.664 116.1728 112.4352 120.4224L274.2784 742.4h284.2624z m309.248-2.56a25.6 25.6 0 0 0 0-36.1984l-398.1824-398.2848a25.6 25.6 0 1 0-36.2496 36.2496l398.2848 398.2336a25.6 25.6 0 0 0 36.1984 0z"  horiz-adv-x="1024" />

    
    <glyph glyph-name="jine" unicode="&#59117;" d="M512 793.6a409.6 409.6 0 1 0 0-819.2 409.6 409.6 0 0 0 0 819.2z m0-51.2a358.4 358.4 0 1 1 0-716.8 358.4 358.4 0 0 1 0 716.8z m128-167.3216a25.6 25.6 0 0 0 11.3152-30.7712l-1.9456-4.1984L588.8 435.2512l51.2-0.0512a25.6 25.6 0 1 0 0-51.2l-102.4 0.0512v-51.2l102.4-0.0512a25.6 25.6 0 1 0 0-51.2l-102.4 0.0512V153.6a25.6 25.6 0 0 0-50.7904-4.608L486.4 153.6v128.0512L384 281.6a25.6 25.6 0 1 0 0 51.2l102.4 0.0512v51.2L384 384a25.6 25.6 0 0 0 0 51.2l51.1488 0.0512-60.5184 104.8576a25.6 25.6 0 1 0 44.3392 25.6l75.3152-130.4576h35.3792l75.3664 130.4576a25.6 25.6 0 0 0 34.9696 9.3696z"  horiz-adv-x="1024" />

    
    <glyph glyph-name="guanbi-xiao" unicode="&#59118;" d="M372.9408 558.6432l3.584-2.9184L512 420.1984l135.4752 135.5264a25.6 25.6 0 0 0 39.168-32.6656l-2.9184-3.584L548.1984 384l135.5264-135.4752a25.6 25.6 0 0 0-32.6656-39.168l-3.584 2.9184L512 347.8016l-135.4752-135.5264a25.6 25.6 0 0 0-39.168 32.6656l2.9184 3.584L475.8016 384 340.2752 519.4752a25.6 25.6 0 0 0 32.6656 39.168z"  horiz-adv-x="1024" />

    
    <glyph glyph-name="duigou" unicode="&#59119;" d="M852.2752 658.1248a25.6 25.6 0 0 0 39.168-32.6656l-2.9184-3.584L409.6 143.0016 135.4752 417.0752a25.6 25.6 0 0 0 32.6656 39.168l3.584-2.9184L409.6 215.3984l442.6752 442.7264z"  horiz-adv-x="1024" />

    
    <glyph glyph-name="queren" unicode="&#59120;" d="M512 793.6a409.6 409.6 0 1 0 0-819.2 409.6 409.6 0 0 0 0 819.2z m224.768-278.528a25.6 25.6 0 0 0 0-36.1472l-253.44-253.44a25.4976 25.4976 0 0 0-11.6224-6.656l-4.352-0.768h-4.352a25.4976 25.4976 0 0 0-15.872 7.424l-144.896 144.7936a25.6 25.6 0 0 0 36.2496 36.1984l126.6688-126.6688 235.3664 235.3152a25.6 25.6 0 0 0 36.1984 0zM512 742.4a358.4 358.4 0 1 1 0-716.8 358.4 358.4 0 0 1 0 716.8z"  horiz-adv-x="1024" />

    
    <glyph glyph-name="shangchuan" unicode="&#59121;" d="M845.2096 384a25.6 25.6 0 0 0 25.1904-20.992l0.4096-4.608v-204.8a128 128 0 0 0-119.552-127.744l-8.448-0.256h-460.8a128 128 0 0 0-127.6928 119.6032l-0.3072 8.3968v204.8A25.6 25.6 0 0 0 204.8 363.008l0.4096-4.608v-204.8a76.8 76.8 0 0 1 69.4272-76.4416l7.3728-0.3584h460.8a76.8 76.8 0 0 1 76.4416 69.4272l0.3584 7.3728v204.8a25.6 25.6 0 0 0 25.6 25.6zM512 228.5568a25.6 25.6 0 0 1 25.6 25.6V654.9504l137.3184-137.2672a25.6 25.6 0 0 1 36.1984 36.1984l-180.992 181.0432a25.6 25.6 0 0 1-36.2496 0L312.8832 553.8816a25.6 25.6 0 0 1 36.1984-36.1984l137.2672 137.2672 0.0512-400.7936a25.6 25.6 0 0 1 25.6-25.6z"  horiz-adv-x="1024" />

    
    <glyph glyph-name="jiantou-you" unicode="&#59122;" d="M391.4752 606.9248a25.6 25.6 0 0 0 32.6656 2.9184l3.584-2.9184 204.8-204.8a25.6 25.6 0 0 0 2.9184-32.6656l-2.9184-3.584-204.8-204.8a25.6 25.6 0 0 0-39.168 32.6656l2.9184 3.584L578.2016 384 391.4752 570.6752a25.6 25.6 0 0 0-2.9184 32.6656l2.9184 3.584z"  horiz-adv-x="1024" />

    
    <glyph glyph-name="jiantou-zuo" unicode="&#59123;" d="M632.5248 606.9248a25.6 25.6 0 0 1-32.6656 2.9184l-3.584-2.9184-204.8-204.8a25.6 25.6 0 0 1-2.9184-32.6656l2.9184-3.584 204.8-204.8a25.6 25.6 0 0 1 39.168 32.6656l-2.9184 3.584L445.7984 384l186.7264 186.6752a25.6 25.6 0 0 1 2.9184 32.6656l-2.9184 3.584z"  horiz-adv-x="1024" />

    
    <glyph glyph-name="jihe" unicode="&#59124;" d="M819.2 486.4c28.2624 0 51.2-20.6336 51.2-46.08v-368.64c0-25.4464-22.9376-46.08-51.2-46.08H204.8c-28.2624 0-51.2 20.6336-51.2 46.08V440.32c0 25.4464 22.9376 46.08 51.2 46.08h614.4z m0-51.2H204.8v-358.4h614.4V435.2z m-25.6 179.2a25.6 25.6 0 0 0 4.608-50.7904l-4.608-0.4096h-563.2a25.6 25.6 0 0 0-4.608 50.7904L230.4 614.4h563.2zM286.208 742.4l456.192-0.4096a25.6 25.6 0 0 0 4.608-50.7904l-4.608-0.4096L286.208 691.2a25.6 25.6 0 0 0-4.608 50.7904L286.208 742.4z"  horiz-adv-x="1024" />

    
    <glyph glyph-name="tiaochu" unicode="&#59125;" d="M409.6 640a25.6 25.6 0 0 0 4.608-50.7904L409.6 588.8H230.4a25.6 25.6 0 0 1-25.1904-20.992L204.8 563.2v-460.8a25.6 25.6 0 0 1 20.992-25.1904L230.4 76.8h460.8a25.6 25.6 0 0 1 25.1904 20.992L716.8 102.4V281.6a25.6 25.6 0 0 0 50.7904 4.608L768 281.6v-179.2a76.8 76.8 0 0 0-69.4272-76.4416L691.2 25.6h-460.8a76.8 76.8 0 0 0-76.4416 69.4272L153.6 102.4v460.8a76.8 76.8 0 0 0 69.4272 76.4416L230.4 640H409.6z m435.2 102.4a25.6 25.6 0 0 0 25.1904-20.992L870.4 716.8v-256a25.6 25.6 0 0 0-50.7904-4.608L819.2 460.8l-0.0512 194.1504L368.9984 204.8a25.6 25.6 0 0 0-39.168 32.6656l2.9696 3.584L782.9504 691.2H588.8a25.6 25.6 0 0 0-25.1904 20.992L563.2 716.8a25.6 25.6 0 0 0 20.992 25.1904L588.8 742.4h256z"  horiz-adv-x="1024" />

    
    <glyph glyph-name="jianshao" unicode="&#59126;" d="M512 793.6a409.6 409.6 0 1 0 0-819.2 409.6 409.6 0 0 0 0 819.2z m179.2-435.2h-358.4a25.6 25.6 0 1 0 0 51.2h358.4a25.6 25.6 0 1 0 0-51.2zM512 742.4a358.4 358.4 0 1 1 0-716.8 358.4 358.4 0 0 1 0 716.8z"  horiz-adv-x="1024" />

    


  </font>
</defs>
</svg>
